<svg xmlns="http://www.w3.org/2000/svg" xmlns:xlink="http://www.w3.org/1999/xlink" xmlns:lucid="lucid" width="2432.5" height="1076"><g transform="translate(-67.5 -320)" lucid:page-tab-id="0_0"><path d="M0 0h3677.73v2581.67H0z" fill="#fff"/><path d="M220 1080h480v38H220z" fill="#fff"/><path d="M220 1117h480v38H220z" fill="#e5e5e5"/><path d="M220 1154h480v38H220z" fill="#fff"/><path d="M220 1191h480v38H220z" fill="#e5e5e5"/><path d="M220 1228h480v38H220z" fill="#fff"/><path d="M220 1265h480v38H220z" fill="#e5e5e5"/><path d="M220 1302h480v38H220z" fill="#fff"/><path d="M220 1339h480v37H220z" fill="#e5e5e5"/><path d="M220 1040h480v40H220z" fill="#99d2f2"/><path d="M220 1046c0-3.3 2.7-6 6-6h468c3.3 0 6 2.7 6 6v324c0 3.3-2.7 6-6 6H226c-3.3 0-6-2.7-6-6zM220 1080h480M280 1080v296M490 1080v296" stroke="#5e5e5e" stroke-width="3" fill="none"/><use xlink:href="#a" transform="matrix(1,0,0,1,230,1040) translate(206.60493827160494 24.444444444444443)"/><use xlink:href="#b" transform="matrix(1,0,0,1,225,1082.5) translate(11.666666666666675 20)"/><use xlink:href="#c" transform="matrix(1,0,0,1,285,1082.5) translate(0 20.444444444444443)"/><use xlink:href="#d" transform="matrix(1,0,0,1,495,1082.5) translate(0 20)"/><use xlink:href="#e" transform="matrix(1,0,0,1,285,1119.5) translate(0 20.444444444444443)"/><use xlink:href="#f" transform="matrix(1,0,0,1,495,1119.5) translate(0 20)"/><use xlink:href="#g" transform="matrix(1,0,0,1,285,1156.5) translate(0 20.444444444444443)"/><use xlink:href="#h" transform="matrix(1,0,0,1,495,1156.5) translate(0 20)"/><use xlink:href="#i" transform="matrix(1,0,0,1,285,1193.5) translate(0 20.488888888888887)"/><use xlink:href="#j" transform="matrix(1,0,0,1,495,1193.5) translate(0 20.044444444444444)"/><use xlink:href="#k" transform="matrix(1,0,0,1,285,1230.5) translate(0 20.488888888888887)"/><use xlink:href="#l" transform="matrix(1,0,0,1,495,1230.5) translate(0 20.044444444444444)"/><use xlink:href="#m" transform="matrix(1,0,0,1,285,1267.5) translate(0 20.488888888888887)"/><use xlink:href="#n" transform="matrix(1,0,0,1,495,1267.5) translate(0 20.044444444444444)"/><use xlink:href="#o" transform="matrix(1,0,0,1,285,1304.5) translate(0 20.488888888888887)"/><use xlink:href="#p" transform="matrix(1,0,0,1,495,1304.5) translate(0 20.044444444444444)"/><use xlink:href="#q" transform="matrix(1,0,0,1,285,1341.5) translate(0 20.488888888888887)"/><use xlink:href="#n" transform="matrix(1,0,0,1,495,1341.5) translate(0 20.044444444444444)"/><path d="M960 640h460v38H960z" fill="#fff"/><path d="M960 677h460v37H960z" fill="#e6e6e6"/><path d="M960 600h460v40H960z" fill="#ffdf71"/><path d="M960 606c0-3.3 2.7-6 6-6h448c3.3 0 6 2.7 6 6v102c0 3.3-2.7 6-6 6H966c-3.3 0-6-2.7-6-6zM960 640h460M1020 640v74M1220 640v74" stroke="#5e5e5e" stroke-width="3" fill="none"/><use xlink:href="#r" transform="matrix(1,0,0,1,970,600) translate(164.5679012345679 24.444444444444443)"/><use xlink:href="#s" transform="matrix(1,0,0,1,965,642.5) translate(10.185185185185187 20.444444444444443)"/><use xlink:href="#t" transform="matrix(1,0,0,1,1025,642.5) translate(0 20.444444444444443)"/><use xlink:href="#u" transform="matrix(1,0,0,1,1225,642.5) translate(0 20.444444444444443)"/><use xlink:href="#v" transform="matrix(1,0,0,1,1025,679.5) translate(0 20.444444444444443)"/><use xlink:href="#w" transform="matrix(1,0,0,1,1225,679.5) translate(0 20.444444444444443)"/><path d="M920 380h560v38H920z" fill="#fff"/><path d="M920 417h560v38H920z" fill="#e6e6e6"/><path d="M920 454h560v38H920z" fill="#fff"/><path d="M920 491h560v37H920z" fill="#e6e6e6"/><path d="M920 340h560v40H920z" fill="#ffdf71"/><path d="M920 346c0-3.3 2.7-6 6-6h548c3.3 0 6 2.7 6 6v176c0 3.3-2.7 6-6 6H926c-3.3 0-6-2.7-6-6zM920 380h560M980 380v148M1230 380v148" stroke="#5e5e5e" stroke-width="3" fill="none"/><use xlink:href="#x" transform="matrix(1,0,0,1,930,340) translate(184.32098765432102 24.444444444444443)"/><use xlink:href="#s" transform="matrix(1,0,0,1,925,382.5) translate(10.185185185185187 20.444444444444443)"/><use xlink:href="#y" transform="matrix(1,0,0,1,985,382.5) translate(0 20.444444444444443)"/><use xlink:href="#u" transform="matrix(1,0,0,1,1235,382.5) translate(0 20.444444444444443)"/><use xlink:href="#z" transform="matrix(1,0,0,1,985,419.5) translate(0 20.444444444444443)"/><use xlink:href="#A" transform="matrix(1,0,0,1,1235,419.5) translate(0 20.444444444444443)"/><use xlink:href="#B" transform="matrix(1,0,0,1,925,456.5) translate(10.833333333333336 20.444444444444443)"/><use xlink:href="#C" transform="matrix(1,0,0,1,985,456.5) translate(0 20.444444444444443)"/><use xlink:href="#u" transform="matrix(1,0,0,1,1235,456.5) translate(0 20.444444444444443)"/><use xlink:href="#B" transform="matrix(1,0,0,1,925,493.5) translate(10.833333333333336 20.444444444444443)"/><use xlink:href="#t" transform="matrix(1,0,0,1,985,493.5) translate(0 20.444444444444443)"/><use xlink:href="#u" transform="matrix(1,0,0,1,1235,493.5) translate(0 20.444444444444443)"/><path d="M1620 454h480v38h-480z" fill="#fff"/><path d="M1620 491h480v37h-480z" fill="#e6e6e6"/><path d="M1620 414h480v40h-480z" fill="#ffdf71"/><path d="M1620 420c0-3.3 2.7-6 6-6h468c3.3 0 6 2.7 6 6v102c0 3.3-2.7 6-6 6h-468c-3.3 0-6-2.7-6-6zM1620 454h480M1680 454v74M1890 454v74" stroke="#5e5e5e" stroke-width="3" fill="none"/><use xlink:href="#D" transform="matrix(1,0,0,1,1630,414) translate(150.06172839506172 24.444444444444443)"/><use xlink:href="#s" transform="matrix(1,0,0,1,1625,456.5) translate(10.185185185185187 20.444444444444443)"/><use xlink:href="#C" transform="matrix(1,0,0,1,1685,456.5) translate(0 20.444444444444443)"/><use xlink:href="#u" transform="matrix(1,0,0,1,1895,456.5) translate(0 20.444444444444443)"/><use xlink:href="#z" transform="matrix(1,0,0,1,1685,493.5) translate(0 20.444444444444443)"/><use xlink:href="#E" transform="matrix(1,0,0,1,1895,493.5) translate(0 20.444444444444443)"/><path d="M1598.5 472.5h-48.4c-.06 0-.1.05-.1.1 0 .06-.04.1-.1.1h-49.58" stroke="#5e5e5e" stroke-width="2" fill="none"/><path d="M1598.5 462.5v20M1618.5 472.5h-20" stroke="#5e5e5e" stroke-width="2" fill="#fff"/><path d="M1481.95 462.7l20 10-20 10" stroke="#5e5e5e" stroke-width="2" fill="#fff" fill-opacity="0"/><path d="M1481.95 472.7h20" stroke="#5e5e5e" stroke-width="2" fill="#fff"/><path d="M120 460h580v38H120z" fill="#fff"/><path d="M120 497h580v38H120z" fill="#e6e6e6"/><path d="M120 534h580v38H120z" fill="#fff"/><path d="M120 571h580v37H120z" fill="#e6e6e6"/><path d="M120 420h580v40H120z" fill="#ffdf71"/><path d="M120 426c0-3.3 2.7-6 6-6h568c3.3 0 6 2.7 6 6v176c0 3.3-2.7 6-6 6H126c-3.3 0-6-2.7-6-6zM120 460h580M180 460v148M440 460v148" stroke="#5e5e5e" stroke-width="3" fill="none"/><use xlink:href="#F" transform="matrix(1,0,0,1,130,420) translate(239.320987654321 24.444444444444443)"/><use xlink:href="#s" transform="matrix(1,0,0,1,125,462.5) translate(10.185185185185187 20.444444444444443)"/><use xlink:href="#G" transform="matrix(1,0,0,1,185,462.5) translate(0 20.444444444444443)"/><use xlink:href="#u" transform="matrix(1,0,0,1,445,462.5) translate(0 20.444444444444443)"/><use xlink:href="#z" transform="matrix(1,0,0,1,185,499.5) translate(0 20.444444444444443)"/><use xlink:href="#A" transform="matrix(1,0,0,1,445,499.5) translate(0 20.444444444444443)"/><use xlink:href="#B" transform="matrix(1,0,0,1,125,536.5) translate(10.833333333333336 20.444444444444443)"/><use xlink:href="#y" transform="matrix(1,0,0,1,185,536.5) translate(0 20.444444444444443)"/><use xlink:href="#u" transform="matrix(1,0,0,1,445,536.5) translate(0 20.444444444444443)"/><use xlink:href="#B" transform="matrix(1,0,0,1,125,573.5) translate(10.833333333333336 20.444444444444443)"/><use xlink:href="#t" transform="matrix(1,0,0,1,185,573.5) translate(0 20.444444444444443)"/><use xlink:href="#u" transform="matrix(1,0,0,1,445,573.5) translate(0 20.444444444444443)"/><path d="M820 894.3h560v38H820z" fill="#fff"/><path d="M820 931.3h560v38H820z" fill="#e6e6e6"/><path d="M820 968.3h560v37H820z" fill="#fff"/><path d="M820 854.3h560v40H820z" fill="#99d2f2"/><path d="M820 860.3c0-3.32 2.7-6 6-6h548c3.3 0 6 2.68 6 6v139c0 3.3-2.7 6-6 6H826c-3.3 0-6-2.7-6-6zM820 894.3h560M880 894.3v111M1130 894.3v111" stroke="#5e5e5e" stroke-width="3" fill="none"/><use xlink:href="#H" transform="matrix(1,0,0,1,830,854.2973214285714) translate(177.56172839506172 24.444444444444443)"/><use xlink:href="#s" transform="matrix(1,0,0,1,825,896.7973214285714) translate(10.185185185185187 20.444444444444443)"/><use xlink:href="#I" transform="matrix(1,0,0,1,885,896.7973214285714) translate(0 20.444444444444443)"/><use xlink:href="#u" transform="matrix(1,0,0,1,1135,896.7973214285714) translate(0 20.444444444444443)"/><use xlink:href="#J" transform="matrix(1,0,0,1,885,933.7973214285714) translate(0 20.444444444444443)"/><use xlink:href="#A" transform="matrix(1,0,0,1,1135,933.7973214285714) translate(0 20.444444444444443)"/><use xlink:href="#K" transform="matrix(1,0,0,1,885,970.7973214285714) translate(0 20.444444444444443)"/><use xlink:href="#L" transform="matrix(1,0,0,1,1135,970.7973214285714) translate(0 20.444444444444443)"/><path d="M898.5 398.3H816c-3.3 0-6 2.7-6 6v142.2c0 3.3-2.7 6-6 6h-83.68" stroke="#5e5e5e" stroke-width="2" fill="none"/><path d="M898.5 388.3v20M918.5 398.3h-20" stroke="#5e5e5e" stroke-width="2" fill="#fff"/><path d="M701.95 542.5l20 10-20 10" stroke="#5e5e5e" stroke-width="2" fill="#fff" fill-opacity="0"/><path d="M701.95 552.5h20" stroke="#5e5e5e" stroke-width="2" fill="#fff"/><path d="M938.5 658.5H836c-3.3 0-6-2.68-6-6v-57c0-3.3-2.7-6-6-6H721.5" stroke="#5e5e5e" stroke-width="2" fill="none"/><path d="M938.5 648.5v20M958.5 658.5h-20M721.5 599.5v-20M701.5 589.5h20" stroke="#5e5e5e" stroke-width="2" fill="#fff"/><path d="M140 820h560v38H140z" fill="#fff"/><path d="M140 857h560v38H140z" fill="#e6e6e6"/><path d="M140 894h560v38H140z" fill="#fff"/><path d="M140 931h560v38H140z" fill="#e6e6e6"/><path d="M140 968h560v32H140z" fill="#fff"/><path d="M140 780h560v40H140z" fill="#99d2f2"/><path d="M140 786c0-3.3 2.7-6 6-6h548c3.3 0 6 2.7 6 6v208c0 3.3-2.7 6-6 6H146c-3.3 0-6-2.7-6-6zM140 820h560M200 820v180M450 820v180" stroke="#5e5e5e" stroke-width="3" fill="none"/><use xlink:href="#M" transform="matrix(1,0,0,1,150,780) translate(210.80246913580245 24.444444444444443)"/><use xlink:href="#s" transform="matrix(1,0,0,1,145,822.5) translate(10.185185185185187 20.444444444444443)"/><use xlink:href="#N" transform="matrix(1,0,0,1,205,822.5) translate(0 20.444444444444443)"/><use xlink:href="#u" transform="matrix(1,0,0,1,455,822.5) translate(0 20.444444444444443)"/><use xlink:href="#O" transform="matrix(1,0,0,1,145,859.5) translate(10.69166666666667 20.488888888888887)"/><use xlink:href="#P" transform="matrix(1,0,0,1,205,859.5) translate(0 20.488888888888887)"/><use xlink:href="#Q" transform="matrix(1,0,0,1,455,859.5) translate(0 20.488888888888887)"/><use xlink:href="#B" transform="matrix(1,0,0,1,145,896.5) translate(10.833333333333336 20.444444444444443)"/><use xlink:href="#R" transform="matrix(1,0,0,1,205,896.5) translate(0 20.444444444444443)"/><use xlink:href="#u" transform="matrix(1,0,0,1,455,896.5) translate(0 20.444444444444443)"/><use xlink:href="#B" transform="matrix(1,0,0,1,145,933.5) translate(10.833333333333336 20.444444444444443)"/><use xlink:href="#I" transform="matrix(1,0,0,1,205,933.5) translate(0 20.444444444444443)"/><use xlink:href="#u" transform="matrix(1,0,0,1,455,933.5) translate(0 20.444444444444443)"/><use xlink:href="#S" transform="matrix(1,0,0,1,205,970.5) translate(0 17.944444444444443)"/><use xlink:href="#T" transform="matrix(1,0,0,1,455,970.5) translate(0 17.944444444444443)"/><path d="M1441.5 658.5h74c3.3 0 6-2.68 6-6V519.6c0-3.3-2.7-6-6-6h-14" stroke="#5e5e5e" stroke-width="2" fill="none"/><path d="M1441.5 668.5v-20M1421.5 658.5h20M1501.5 523.6v-20M1481.5 513.6h20" stroke="#5e5e5e" stroke-width="2" fill="#fff"/><path d="M98.5 478.5h-14c-3.3 0-6 2.7-6 6v348c0 3.3 2.7 6 6 6h35.18" stroke="#5e5e5e" stroke-width="2" fill="none"/><path d="M98.5 468.5v20M118.5 478.5h-20" stroke="#5e5e5e" stroke-width="2" fill="#fff"/><path d="M138.05 848.5l-20-10 20-10" stroke="#5e5e5e" stroke-width="2" fill="#fff" fill-opacity="0"/><path d="M138.05 838.5h-20" stroke="#5e5e5e" stroke-width="2" fill="#fff"/><path d="M198.5 1098.5h-94c-3.3 0-6-2.7-6-6v-174c0-3.3 2.7-6 6-6h15.18" stroke="#5e5e5e" stroke-width="2" fill="none"/><path d="M198.5 1088.5v20M218.5 1098.5h-20" stroke="#5e5e5e" stroke-width="2" fill="#fff"/><path d="M138.05 922.5l-20-10 20-10" stroke="#5e5e5e" stroke-width="2" fill="#fff" fill-opacity="0"/><path d="M138.05 912.5h-20" stroke="#5e5e5e" stroke-width="2" fill="#fff"/><path d="M798.5 912.8H766c-3.3 0-6 2.68-6 6v24.7c0 3.3-2.7 6-6 6h-33.68" stroke="#5e5e5e" stroke-width="2" fill="none"/><path d="M798.5 902.8v20M818.5 912.8h-20" stroke="#5e5e5e" stroke-width="2" fill="#fff"/><path d="M701.95 939.5l20 10-20 10" stroke="#5e5e5e" stroke-width="2" fill="#fff" fill-opacity="0"/><path d="M701.95 949.5h20" stroke="#5e5e5e" stroke-width="2" fill="#fff"/><path d="M2120 446c0-3.3 2.7-6 6-6h268c3.3 0 6 2.7 6 6v28c0 3.3-2.7 6-6 6h-268c-3.3 0-6-2.7-6-6z" stroke="#5e5e5e" stroke-width="3" fill="#fff"/><use xlink:href="#U" transform="matrix(1,0,0,1,2125,445) translate(31.820987654320987 19.65277777777778)"/><use xlink:href="#V" transform="matrix(1,0,0,1,2125,445) translate(149.41358024691357 19.65277777777778)"/><use xlink:href="#W" transform="matrix(1,0,0,1,2125,445) translate(181.4506172839506 19.65277777777778)"/><use xlink:href="#X" transform="matrix(1,0,0,1,2125,445) translate(199.96913580246914 19.65277777777778)"/><use xlink:href="#Y" transform="matrix(1,0,0,1,2125,445) translate(225.83333333333334 19.65277777777778)"/><path d="M2120 500c0-3.3 2.7-6 6-6h348c3.3 0 6 2.7 6 6v28c0 3.3-2.7 6-6 6h-348c-3.3 0-6-2.7-6-6z" stroke="#5e5e5e" stroke-width="3" fill="#fff"/><use xlink:href="#Z" transform="matrix(1,0,0,1,2125,499) translate(2.9938271604938222 19.65277777777778)"/><use xlink:href="#aa" transform="matrix(1,0,0,1,2125,499) translate(75.7716049382716 19.65277777777778)"/><use xlink:href="#ab" transform="matrix(1,0,0,1,2125,499) translate(163.30246913580245 19.65277777777778)"/><use xlink:href="#X" transform="matrix(1,0,0,1,2125,499) translate(253.3641975308642 19.65277777777778)"/><use xlink:href="#ac" transform="matrix(1,0,0,1,2125,499) translate(279.2283950617284 19.65277777777778)"/><path d="M1440 686c0-3.3 2.7-6 6-6h348c3.3 0 6 2.7 6 6v148c0 3.3-2.7 6-6 6h-348c-3.3 0-6-2.7-6-6z" stroke="#5e5e5e" stroke-width="3" fill="#fff"/><g><use xlink:href="#ad" transform="matrix(1,0,0,1,1445,685) translate(40.03086419753083 41.21527777777778)"/><use xlink:href="#ae" transform="matrix(1,0,0,1,1445,685) translate(168.11728395061726 41.21527777777778)"/><use xlink:href="#af" transform="matrix(1,0,0,1,1445,685) translate(227.3148148148148 41.21527777777778)"/><use xlink:href="#ag" transform="matrix(1,0,0,1,1445,685) translate(20.864197530864203 67.88194444444446)"/><use xlink:href="#ah" transform="matrix(1,0,0,1,1445,685) translate(136.66666666666669 67.88194444444446)"/><use xlink:href="#ai" transform="matrix(1,0,0,1,1445,685) translate(198.39506172839506 67.88194444444446)"/><use xlink:href="#aj" transform="matrix(1,0,0,1,1445,685) translate(247.77777777777777 67.88194444444446)"/><use xlink:href="#ak" transform="matrix(1,0,0,1,1445,685) translate(15.370370370370381 94.54861111111111)"/><use xlink:href="#al" transform="matrix(1,0,0,1,1445,685) translate(58.58024691358026 94.54861111111111)"/><use xlink:href="#am" transform="matrix(1,0,0,1,1445,685) translate(236.1111111111111 94.54861111111111)"/><use xlink:href="#an" transform="matrix(1,0,0,1,1445,685) translate(260.8024691358024 94.54861111111111)"/><use xlink:href="#ao" transform="matrix(1,0,0,1,1445,685) translate(75.03086419753086 121.2152777777778)"/><use xlink:href="#ap" transform="matrix(1,0,0,1,1445,685) translate(112.0679012345679 121.2152777777778)"/><use xlink:href="#aq" transform="matrix(1,0,0,1,1445,685) translate(197.25308641975306 121.2152777777778)"/></g><path d="M740 1286c0-3.3 2.7-6 6-6h148c3.3 0 6 2.7 6 6v68c0 3.3-2.7 6-6 6H746c-3.3 0-6-2.7-6-6z" stroke="#5e5e5e" stroke-width="3" fill="#fff"/><g><use xlink:href="#ar" transform="matrix(1,0,0,1,745,1285) translate(10.925925925925938 26.52777777777778)"/><use xlink:href="#as" transform="matrix(1,0,0,1,745,1285) translate(100.92592592592592 26.52777777777778)"/><use xlink:href="#at" transform="matrix(1,0,0,1,745,1285) translate(22.654320987654323 53.19444444444445)"/><use xlink:href="#au" transform="matrix(1,0,0,1,745,1285) translate(48.51851851851852 53.19444444444445)"/><use xlink:href="#av" transform="matrix(1,0,0,1,745,1285) translate(70.67901234567901 53.19444444444445)"/><use xlink:href="#aw" transform="matrix(1,0,0,1,745,1285) translate(113.82716049382717 53.19444444444445)"/></g><defs><path fill="#333" d="M232-93c-1 65-40 97-104 97C67 4 28-28 28-90v-158h33c8 89-33 224 67 224 102 0 64-133 71-224h33v155" id="ax"/><path fill="#333" d="M135-143c-3-34-86-38-87 0 15 53 115 12 119 90S17 21 10-45l28-5c4 36 97 45 98 0-10-56-113-15-118-90-4-57 82-63 122-42 12 7 21 19 24 35" id="ay"/><path fill="#333" d="M100-194c63 0 86 42 84 106H49c0 40 14 67 53 68 26 1 43-12 49-29l28 8c-11 28-37 45-77 45C44 4 14-33 15-96c1-61 26-98 85-98zm52 81c6-60-76-77-97-28-3 7-6 17-6 28h103" id="az"/><path fill="#333" d="M114-163C36-179 61-72 57 0H25l-1-190h30c1 12-1 29 2 39 6-27 23-49 58-41v29" id="aA"/><g id="a"><use transform="matrix(0.061728395061728364,0,0,0.061728395061728364,0,0)" xlink:href="#ax"/><use transform="matrix(0.061728395061728364,0,0,0.061728395061728364,15.987654320987646,0)" xlink:href="#ay"/><use transform="matrix(0.061728395061728364,0,0,0.061728395061728364,27.09876543209875,0)" xlink:href="#az"/><use transform="matrix(0.061728395061728364,0,0,0.061728395061728364,39.44444444444443,0)" xlink:href="#aA"/></g><path fill="#333" d="M30-248c87 1 191-15 191 75 0 78-77 80-158 76V0H30v-248zm33 125c57 0 124 11 124-50 0-59-68-47-124-48v98" id="aB"/><path fill="#333" d="M194 0L95-120 63-95V0H30v-248h33v124l119-124h40L117-140 236 0h-42" id="aC"/><g id="b"><use transform="matrix(0.055555555555555525,0,0,0.055555555555555525,0,0)" xlink:href="#aB"/><use transform="matrix(0.055555555555555525,0,0,0.055555555555555525,13.333333333333325,0)" xlink:href="#aC"/></g><path fill="#333" d="M33 0v-248h34V0H33" id="aD"/><path fill="#333" d="M30-248c118-7 216 8 213 122C240-48 200 0 122 0H30v-248zM63-27c89 8 146-16 146-99s-60-101-146-95v194" id="aE"/><g id="c"><use transform="matrix(0.061728395061728364,0,0,0.061728395061728364,0,0)" xlink:href="#ax"/><use transform="matrix(0.061728395061728364,0,0,0.061728395061728364,15.987654320987646,0)" xlink:href="#ay"/><use transform="matrix(0.061728395061728364,0,0,0.061728395061728364,27.09876543209875,0)" xlink:href="#az"/><use transform="matrix(0.061728395061728364,0,0,0.061728395061728364,39.44444444444443,0)" xlink:href="#aA"/><use transform="matrix(0.061728395061728364,0,0,0.061728395061728364,46.790123456790106,0)" xlink:href="#aD"/><use transform="matrix(0.061728395061728364,0,0,0.061728395061728364,52.96296296296294,0)" xlink:href="#aE"/></g><path fill="#333" d="M160-131c35 5 61 23 61 61C221 17 115-2 30 0v-248c76 3 177-17 177 60 0 33-19 50-47 57zm-97-11c50-1 110 9 110-42 0-47-63-36-110-37v79zm0 115c55-2 124 14 124-45 0-56-70-42-124-44v89" id="aF"/><path fill="#333" d="M143 4C61 4 22-44 18-125c-5-107 100-154 193-111 17 8 29 25 37 43l-32 9c-13-25-37-40-76-40-61 0-88 39-88 99 0 61 29 100 91 101 35 0 62-11 79-27v-45h-74v-28h105v86C228-13 192 4 143 4" id="aG"/><path fill="#333" d="M190 0L58-211 59 0H30v-248h39L202-35l-2-213h31V0h-41" id="aH"/><path fill="#333" d="M127-220V0H93v-220H8v-28h204v28h-85" id="aI"/><g id="d"><use transform="matrix(0.055555555555555525,0,0,0.055555555555555525,0,0)" xlink:href="#aF"/><use transform="matrix(0.055555555555555525,0,0,0.055555555555555525,13.333333333333325,0)" xlink:href="#aD"/><use transform="matrix(0.055555555555555525,0,0,0.055555555555555525,18.88888888888888,0)" xlink:href="#aG"/><use transform="matrix(0.055555555555555525,0,0,0.055555555555555525,34.44444444444443,0)" xlink:href="#aD"/><use transform="matrix(0.055555555555555525,0,0,0.055555555555555525,39.99999999999998,0)" xlink:href="#aH"/><use transform="matrix(0.055555555555555525,0,0,0.055555555555555525,54.38888888888886,0)" xlink:href="#aI"/></g><path fill="#333" d="M63-220v92h138v28H63V0H30v-248h175v28H63" id="aJ"/><path fill="#333" d="M24-231v-30h32v30H24zM24 0v-190h32V0H24" id="aK"/><path fill="#333" d="M59-47c-2 24 18 29 38 22v24C64 9 27 4 27-40v-127H5v-23h24l9-43h21v43h35v23H59v120" id="aL"/><path fill="#333" d="M141-36C126-15 110 5 73 4 37 3 15-17 15-53c-1-64 63-63 125-63 3-35-9-54-41-54-24 1-41 7-42 31l-33-3c5-37 33-52 76-52 45 0 72 20 72 64v82c-1 20 7 32 28 27v20c-31 9-61-2-59-35zM48-53c0 20 12 33 32 33 41-3 63-29 60-74-43 2-92-5-92 41" id="aM"/><path fill="#333" d="M210-169c-67 3-38 105-44 169h-31v-121c0-29-5-50-35-48C34-165 62-65 56 0H25l-1-190h30c1 10-1 24 2 32 10-44 99-50 107 0 11-21 27-35 58-36 85-2 47 119 55 194h-31v-121c0-29-5-49-35-48" id="aN"/><g id="e"><use transform="matrix(0.061728395061728364,0,0,0.061728395061728364,0,0)" xlink:href="#aJ"/><use transform="matrix(0.061728395061728364,0,0,0.061728395061728364,13.518518518518512,0)" xlink:href="#aK"/><use transform="matrix(0.061728395061728364,0,0,0.061728395061728364,18.395061728395053,0)" xlink:href="#aA"/><use transform="matrix(0.061728395061728364,0,0,0.061728395061728364,25.740740740740726,0)" xlink:href="#ay"/><use transform="matrix(0.061728395061728364,0,0,0.061728395061728364,36.85185185185183,0)" xlink:href="#aL"/><use transform="matrix(0.061728395061728364,0,0,0.061728395061728364,43.02469135802467,0)" xlink:href="#aH"/><use transform="matrix(0.061728395061728364,0,0,0.061728395061728364,59.01234567901231,0)" xlink:href="#aM"/><use transform="matrix(0.061728395061728364,0,0,0.061728395061728364,71.35802469135798,0)" xlink:href="#aN"/><use transform="matrix(0.061728395061728364,0,0,0.061728395061728364,89.81481481481477,0)" xlink:href="#az"/></g><path fill="#333" d="M137 0h-34L2-248h35l83 218 83-218h36" id="aO"/><path fill="#333" d="M205 0l-28-72H64L36 0H1l101-248h38L239 0h-34zm-38-99l-47-123c-12 45-31 82-46 123h93" id="aP"/><path fill="#333" d="M233-177c-1 41-23 64-60 70L243 0h-38l-65-103H63V0H30v-248c88 3 205-21 203 71zM63-129c60-2 137 13 137-47 0-61-80-42-137-45v92" id="aQ"/><path fill="#333" d="M212-179c-10-28-35-45-73-45-59 0-87 40-87 99 0 60 29 101 89 101 43 0 62-24 78-52l27 14C228-24 195 4 139 4 59 4 22-46 18-125c-6-104 99-153 187-111 19 9 31 26 39 46" id="aR"/><path fill="#333" d="M197 0v-115H63V0H30v-248h33v105h134v-105h34V0h-34" id="aS"/><path fill="#333" d="M87 75C49 33 22-17 22-94c0-76 28-126 65-167h31c-38 41-64 92-64 168S80 34 118 75H87" id="aT"/><path fill="#333" d="M134-131c28 9 52 24 51 62-1 50-34 73-85 73S17-19 16-69c0-36 21-54 49-61-75-25-45-126 34-121 46 3 78 18 79 63 0 33-17 51-44 57zm-34-11c31 1 46-15 46-44 0-28-17-43-47-42-29 0-46 13-45 42 1 28 16 44 46 44zm1 122c35 0 51-18 51-52 0-30-18-46-53-46-33 0-51 17-51 47 0 34 19 51 53 51" id="aU"/><path fill="#333" d="M54-142c48-35 137-8 131 61C196 18 31 33 14-55l32-4c7 23 22 37 52 37 35-1 51-22 54-58 4-55-73-65-99-34H22l8-134h141v27H59" id="aV"/><path fill="#333" d="M33-261c38 41 65 92 65 168S71 34 33 75H2C39 34 66-17 66-93S39-220 2-261h31" id="aW"/><g id="f"><use transform="matrix(0.055555555555555525,0,0,0.055555555555555525,0,0)" xlink:href="#aH"/><use transform="matrix(0.055555555555555525,0,0,0.055555555555555525,14.38888888888888,0)" xlink:href="#aO"/><use transform="matrix(0.055555555555555525,0,0,0.055555555555555525,26.222222222222207,0)" xlink:href="#aP"/><use transform="matrix(0.055555555555555525,0,0,0.055555555555555525,39.55555555555553,0)" xlink:href="#aQ"/><use transform="matrix(0.055555555555555525,0,0,0.055555555555555525,53.94444444444441,0)" xlink:href="#aR"/><use transform="matrix(0.055555555555555525,0,0,0.055555555555555525,68.33333333333329,0)" xlink:href="#aS"/><use transform="matrix(0.055555555555555525,0,0,0.055555555555555525,82.72222222222217,0)" xlink:href="#aP"/><use transform="matrix(0.055555555555555525,0,0,0.055555555555555525,96.0555555555555,0)" xlink:href="#aQ"/><use transform="matrix(0.055555555555555525,0,0,0.055555555555555525,110.44444444444439,0)" xlink:href="#aT"/><use transform="matrix(0.055555555555555525,0,0,0.055555555555555525,117.05555555555549,0)" xlink:href="#aU"/><use transform="matrix(0.055555555555555525,0,0,0.055555555555555525,128.1666666666666,0)" xlink:href="#aV"/><use transform="matrix(0.055555555555555525,0,0,0.055555555555555525,139.27777777777771,0)" xlink:href="#aW"/></g><path fill="#333" d="M30 0v-248h33v221h125V0H30" id="aX"/><g id="g"><use transform="matrix(0.061728395061728364,0,0,0.061728395061728364,0,0)" xlink:href="#aX"/><use transform="matrix(0.061728395061728364,0,0,0.061728395061728364,12.345679012345673,0)" xlink:href="#aM"/><use transform="matrix(0.061728395061728364,0,0,0.061728395061728364,24.691358024691347,0)" xlink:href="#ay"/><use transform="matrix(0.061728395061728364,0,0,0.061728395061728364,35.802469135802454,0)" xlink:href="#aL"/><use transform="matrix(0.061728395061728364,0,0,0.061728395061728364,41.97530864197529,0)" xlink:href="#aH"/><use transform="matrix(0.061728395061728364,0,0,0.061728395061728364,57.96296296296293,0)" xlink:href="#aM"/><use transform="matrix(0.061728395061728364,0,0,0.061728395061728364,70.3086419753086,0)" xlink:href="#aN"/><use transform="matrix(0.061728395061728364,0,0,0.061728395061728364,88.76543209876539,0)" xlink:href="#az"/></g><g id="h"><use transform="matrix(0.055555555555555525,0,0,0.055555555555555525,0,0)" xlink:href="#aH"/><use transform="matrix(0.055555555555555525,0,0,0.055555555555555525,14.38888888888888,0)" xlink:href="#aO"/><use transform="matrix(0.055555555555555525,0,0,0.055555555555555525,26.222222222222207,0)" xlink:href="#aP"/><use transform="matrix(0.055555555555555525,0,0,0.055555555555555525,39.55555555555553,0)" xlink:href="#aR"/><use transform="matrix(0.055555555555555525,0,0,0.055555555555555525,53.94444444444441,0)" xlink:href="#aQ"/><use transform="matrix(0.055555555555555525,0,0,0.055555555555555525,68.33333333333329,0)" xlink:href="#aS"/><use transform="matrix(0.055555555555555525,0,0,0.055555555555555525,82.72222222222217,0)" xlink:href="#aP"/><use transform="matrix(0.055555555555555525,0,0,0.055555555555555525,96.0555555555555,0)" xlink:href="#aQ"/><use transform="matrix(0.055555555555555525,0,0,0.055555555555555525,110.44444444444439,0)" xlink:href="#aT"/><use transform="matrix(0.055555555555555525,0,0,0.055555555555555525,117.05555555555549,0)" xlink:href="#aU"/><use transform="matrix(0.055555555555555525,0,0,0.055555555555555525,128.1666666666666,0)" xlink:href="#aV"/><use transform="matrix(0.055555555555555525,0,0,0.055555555555555525,139.27777777777771,0)" xlink:href="#aW"/></g><path d="M160-131c35 5 61 23 61 61C221 17 115-2 30 0v-248c76 3 177-17 177 60 0 33-19 50-47 57zm-97-11c50-1 110 9 110-42 0-47-63-36-110-37v79zm0 115c55-2 124 14 124-45 0-56-70-42-124-44v89" id="aY"/><path d="M24-231v-30h32v30H24zM24 0v-190h32V0H24" id="aZ"/><path d="M114-163C36-179 61-72 57 0H25l-1-190h30c1 12-1 29 2 39 6-27 23-49 58-41v29" id="ba"/><path d="M59-47c-2 24 18 29 38 22v24C64 9 27 4 27-40v-127H5v-23h24l9-43h21v43h35v23H59v120" id="bb"/><path d="M106-169C34-169 62-67 57 0H25v-261h32l-1 103c12-21 28-36 61-36 89 0 53 116 60 194h-32v-121c2-32-8-49-39-48" id="bc"/><path d="M30-248c118-7 216 8 213 122C240-48 200 0 122 0H30v-248zM63-27c89 8 146-16 146-99s-60-101-146-95v194" id="bd"/><path d="M141-36C126-15 110 5 73 4 37 3 15-17 15-53c-1-64 63-63 125-63 3-35-9-54-41-54-24 1-41 7-42 31l-33-3c5-37 33-52 76-52 45 0 72 20 72 64v82c-1 20 7 32 28 27v20c-31 9-61-2-59-35zM48-53c0 20 12 33 32 33 41-3 63-29 60-74-43 2-92-5-92 41" id="be"/><path d="M100-194c63 0 86 42 84 106H49c0 40 14 67 53 68 26 1 43-12 49-29l28 8c-11 28-37 45-77 45C44 4 14-33 15-96c1-61 26-98 85-98zm52 81c6-60-76-77-97-28-3 7-6 17-6 28h103" id="bf"/><g id="i"><use transform="matrix(0.06234567901234567,0,0,0.06234567901234567,0,0)" xlink:href="#aY"/><use transform="matrix(0.06234567901234567,0,0,0.06234567901234567,14.96296296296296,0)" xlink:href="#aZ"/><use transform="matrix(0.06234567901234567,0,0,0.06234567901234567,19.888271604938268,0)" xlink:href="#ba"/><use transform="matrix(0.06234567901234567,0,0,0.06234567901234567,27.307407407407403,0)" xlink:href="#bb"/><use transform="matrix(0.06234567901234567,0,0,0.06234567901234567,33.541975308641966,0)" xlink:href="#bc"/><use transform="matrix(0.06234567901234567,0,0,0.06234567901234567,46.0111111111111,0)" xlink:href="#bd"/><use transform="matrix(0.06234567901234567,0,0,0.06234567901234567,62.158641975308626,0)" xlink:href="#be"/><use transform="matrix(0.06234567901234567,0,0,0.06234567901234567,74.62777777777777,0)" xlink:href="#bb"/><use transform="matrix(0.06234567901234567,0,0,0.06234567901234567,80.86234567901234,0)" xlink:href="#bf"/></g><path d="M205 0l-28-72H64L36 0H1l101-248h38L239 0h-34zm-38-99l-47-123c-12 45-31 82-46 123h93" id="bg"/><path d="M127-220V0H93v-220H8v-28h204v28h-85" id="bh"/><path d="M30 0v-248h187v28H63v79h144v27H63v87h162V0H30" id="bi"/><g id="j"><use transform="matrix(0.05617283950617283,0,0,0.05617283950617283,0,0)" xlink:href="#bd"/><use transform="matrix(0.05617283950617283,0,0,0.05617283950617283,14.548765432098762,0)" xlink:href="#bg"/><use transform="matrix(0.05617283950617283,0,0,0.05617283950617283,26.513580246913577,0)" xlink:href="#bh"/><use transform="matrix(0.05617283950617283,0,0,0.05617283950617283,38.81543209876543,0)" xlink:href="#bi"/></g><path d="M232-93c-1 65-40 97-104 97C67 4 28-28 28-90v-158h33c8 89-33 224 67 224 102 0 64-133 71-224h33v155" id="bj"/><path d="M135-143c-3-34-86-38-87 0 15 53 115 12 119 90S17 21 10-45l28-5c4 36 97 45 98 0-10-56-113-15-118-90-4-57 82-63 122-42 12 7 21 19 24 35" id="bk"/><path d="M117-194c89-4 53 116 60 194h-32v-121c0-31-8-49-39-48C34-167 62-67 57 0H25l-1-190h30c1 10-1 24 2 32 11-22 29-35 61-36" id="bl"/><path d="M210-169c-67 3-38 105-44 169h-31v-121c0-29-5-50-35-48C34-165 62-65 56 0H25l-1-190h30c1 10-1 24 2 32 10-44 99-50 107 0 11-21 27-35 58-36 85-2 47 119 55 194h-31v-121c0-29-5-49-35-48" id="bm"/><g id="k"><use transform="matrix(0.06234567901234567,0,0,0.06234567901234567,0,0)" xlink:href="#bj"/><use transform="matrix(0.06234567901234567,0,0,0.06234567901234567,16.147530864197527,0)" xlink:href="#bk"/><use transform="matrix(0.06234567901234567,0,0,0.06234567901234567,27.36975308641975,0)" xlink:href="#bf"/><use transform="matrix(0.06234567901234567,0,0,0.06234567901234567,39.83888888888888,0)" xlink:href="#ba"/><use transform="matrix(0.06234567901234567,0,0,0.06234567901234567,47.25802469135802,0)" xlink:href="#bl"/><use transform="matrix(0.06234567901234567,0,0,0.06234567901234567,59.72716049382715,0)" xlink:href="#be"/><use transform="matrix(0.06234567901234567,0,0,0.06234567901234567,72.19629629629628,0)" xlink:href="#bm"/><use transform="matrix(0.06234567901234567,0,0,0.06234567901234567,90.83765432098764,0)" xlink:href="#bf"/></g><path d="M190 0L58-211 59 0H30v-248h39L202-35l-2-213h31V0h-41" id="bn"/><path d="M137 0h-34L2-248h35l83 218 83-218h36" id="bo"/><path d="M233-177c-1 41-23 64-60 70L243 0h-38l-65-103H63V0H30v-248c88 3 205-21 203 71zM63-129c60-2 137 13 137-47 0-61-80-42-137-45v92" id="bp"/><path d="M212-179c-10-28-35-45-73-45-59 0-87 40-87 99 0 60 29 101 89 101 43 0 62-24 78-52l27 14C228-24 195 4 139 4 59 4 22-46 18-125c-6-104 99-153 187-111 19 9 31 26 39 46" id="bq"/><path d="M197 0v-115H63V0H30v-248h33v105h134v-105h34V0h-34" id="br"/><path d="M87 75C49 33 22-17 22-94c0-76 28-126 65-167h31c-38 41-64 92-64 168S80 34 118 75H87" id="bs"/><path d="M54-142c48-35 137-8 131 61C196 18 31 33 14-55l32-4c7 23 22 37 52 37 35-1 51-22 54-58 4-55-73-65-99-34H22l8-134h141v27H59" id="bt"/><path d="M101-251c68 0 85 55 85 127S166 4 100 4C33 4 14-52 14-124c0-73 17-127 87-127zm-1 229c47 0 54-49 54-102s-4-102-53-102c-51 0-55 48-55 102 0 53 5 102 54 102" id="bu"/><path d="M33-261c38 41 65 92 65 168S71 34 33 75H2C39 34 66-17 66-93S39-220 2-261h31" id="bv"/><g id="l"><use transform="matrix(0.05617283950617283,0,0,0.05617283950617283,0,0)" xlink:href="#bn"/><use transform="matrix(0.05617283950617283,0,0,0.05617283950617283,14.548765432098762,0)" xlink:href="#bo"/><use transform="matrix(0.05617283950617283,0,0,0.05617283950617283,26.513580246913577,0)" xlink:href="#bg"/><use transform="matrix(0.05617283950617283,0,0,0.05617283950617283,39.99506172839506,0)" xlink:href="#bp"/><use transform="matrix(0.05617283950617283,0,0,0.05617283950617283,54.54382716049382,0)" xlink:href="#bq"/><use transform="matrix(0.05617283950617283,0,0,0.05617283950617283,69.09259259259258,0)" xlink:href="#br"/><use transform="matrix(0.05617283950617283,0,0,0.05617283950617283,83.64135802469134,0)" xlink:href="#bg"/><use transform="matrix(0.05617283950617283,0,0,0.05617283950617283,97.12283950617282,0)" xlink:href="#bp"/><use transform="matrix(0.05617283950617283,0,0,0.05617283950617283,111.67160493827159,0)" xlink:href="#bs"/><use transform="matrix(0.05617283950617283,0,0,0.05617283950617283,118.35617283950614,0)" xlink:href="#bt"/><use transform="matrix(0.05617283950617283,0,0,0.05617283950617283,129.59074074074073,0)" xlink:href="#bu"/><use transform="matrix(0.05617283950617283,0,0,0.05617283950617283,140.82530864197528,0)" xlink:href="#bv"/></g><path d="M30-248c87 1 191-15 191 75 0 78-77 80-158 76V0H30v-248zm33 125c57 0 124 11 124-50 0-59-68-47-124-48v98" id="bw"/><path d="M206 0h-36l-40-164L89 0H53L-1-190h32L70-26l43-164h34l41 164 42-164h31" id="bx"/><path d="M100-194c62-1 85 37 85 99 1 63-27 99-86 99S16-35 15-95c0-66 28-99 85-99zM99-20c44 1 53-31 53-75 0-43-8-75-51-75s-53 32-53 75 10 74 51 75" id="by"/><path d="M85-194c31 0 48 13 60 33l-1-100h32l1 261h-30c-2-10 0-23-3-31C134-8 116 4 85 4 32 4 16-35 15-94c0-66 23-100 70-100zm9 24c-40 0-46 34-46 75 0 40 6 74 45 74 42 0 51-32 51-76 0-42-9-74-50-73" id="bz"/><g id="m"><use transform="matrix(0.06234567901234567,0,0,0.06234567901234567,0,0)" xlink:href="#bw"/><use transform="matrix(0.06234567901234567,0,0,0.06234567901234567,14.96296296296296,0)" xlink:href="#be"/><use transform="matrix(0.06234567901234567,0,0,0.06234567901234567,27.432098765432094,0)" xlink:href="#bk"/><use transform="matrix(0.06234567901234567,0,0,0.06234567901234567,38.654320987654316,0)" xlink:href="#bk"/><use transform="matrix(0.06234567901234567,0,0,0.06234567901234567,49.87654320987654,0)" xlink:href="#bx"/><use transform="matrix(0.06234567901234567,0,0,0.06234567901234567,66.02407407407406,0)" xlink:href="#by"/><use transform="matrix(0.06234567901234567,0,0,0.06234567901234567,78.4932098765432,0)" xlink:href="#ba"/><use transform="matrix(0.06234567901234567,0,0,0.06234567901234567,85.91234567901233,0)" xlink:href="#bz"/></g><path d="M134-131c28 9 52 24 51 62-1 50-34 73-85 73S17-19 16-69c0-36 21-54 49-61-75-25-45-126 34-121 46 3 78 18 79 63 0 33-17 51-44 57zm-34-11c31 1 46-15 46-44 0-28-17-43-47-42-29 0-46 13-45 42 1 28 16 44 46 44zm1 122c35 0 51-18 51-52 0-30-18-46-53-46-33 0-51 17-51 47 0 34 19 51 53 51" id="bA"/><g id="n"><use transform="matrix(0.05617283950617283,0,0,0.05617283950617283,0,0)" xlink:href="#bn"/><use transform="matrix(0.05617283950617283,0,0,0.05617283950617283,14.548765432098762,0)" xlink:href="#bo"/><use transform="matrix(0.05617283950617283,0,0,0.05617283950617283,26.513580246913577,0)" xlink:href="#bg"/><use transform="matrix(0.05617283950617283,0,0,0.05617283950617283,39.99506172839506,0)" xlink:href="#bp"/><use transform="matrix(0.05617283950617283,0,0,0.05617283950617283,54.54382716049382,0)" xlink:href="#bq"/><use transform="matrix(0.05617283950617283,0,0,0.05617283950617283,69.09259259259258,0)" xlink:href="#br"/><use transform="matrix(0.05617283950617283,0,0,0.05617283950617283,83.64135802469134,0)" xlink:href="#bg"/><use transform="matrix(0.05617283950617283,0,0,0.05617283950617283,97.12283950617282,0)" xlink:href="#bp"/><use transform="matrix(0.05617283950617283,0,0,0.05617283950617283,111.67160493827159,0)" xlink:href="#bs"/><use transform="matrix(0.05617283950617283,0,0,0.05617283950617283,118.35617283950614,0)" xlink:href="#bA"/><use transform="matrix(0.05617283950617283,0,0,0.05617283950617283,129.59074074074073,0)" xlink:href="#bt"/><use transform="matrix(0.05617283950617283,0,0,0.05617283950617283,140.82530864197528,0)" xlink:href="#bv"/></g><path d="M143 4C61 4 22-44 18-125c-5-107 100-154 193-111 17 8 29 25 37 43l-32 9c-13-25-37-40-76-40-61 0-88 39-88 99 0 61 29 100 91 101 35 0 62-11 79-27v-45h-74v-28h105v86C228-13 192 4 143 4" id="bB"/><g id="o"><use transform="matrix(0.06234567901234567,0,0,0.06234567901234567,0,0)" xlink:href="#bB"/><use transform="matrix(0.06234567901234567,0,0,0.06234567901234567,17.456790123456788,0)" xlink:href="#bf"/><use transform="matrix(0.06234567901234567,0,0,0.06234567901234567,29.92592592592592,0)" xlink:href="#bl"/><use transform="matrix(0.06234567901234567,0,0,0.06234567901234567,42.39506172839505,0)" xlink:href="#bz"/><use transform="matrix(0.06234567901234567,0,0,0.06234567901234567,54.86419753086418,0)" xlink:href="#bf"/><use transform="matrix(0.06234567901234567,0,0,0.06234567901234567,67.33333333333331,0)" xlink:href="#ba"/></g><path d="M27 0v-27h64v-190l-56 39v-29l58-41h29v221h61V0H27" id="bC"/><g id="p"><use transform="matrix(0.05617283950617283,0,0,0.05617283950617283,0,0)" xlink:href="#bo"/><use transform="matrix(0.05617283950617283,0,0,0.05617283950617283,11.964814814814813,0)" xlink:href="#bg"/><use transform="matrix(0.05617283950617283,0,0,0.05617283950617283,25.446296296296293,0)" xlink:href="#bp"/><use transform="matrix(0.05617283950617283,0,0,0.05617283950617283,39.99506172839506,0)" xlink:href="#bq"/><use transform="matrix(0.05617283950617283,0,0,0.05617283950617283,54.54382716049382,0)" xlink:href="#br"/><use transform="matrix(0.05617283950617283,0,0,0.05617283950617283,69.09259259259258,0)" xlink:href="#bg"/><use transform="matrix(0.05617283950617283,0,0,0.05617283950617283,82.57407407407406,0)" xlink:href="#bp"/><use transform="matrix(0.05617283950617283,0,0,0.05617283950617283,97.12283950617282,0)" xlink:href="#bs"/><use transform="matrix(0.05617283950617283,0,0,0.05617283950617283,103.8074074074074,0)" xlink:href="#bC"/><use transform="matrix(0.05617283950617283,0,0,0.05617283950617283,115.04197530864198,0)" xlink:href="#bv"/></g><path d="M24 0v-261h32V0H24" id="bD"/><g id="q"><use transform="matrix(0.06234567901234567,0,0,0.06234567901234567,0,0)" xlink:href="#bi"/><use transform="matrix(0.06234567901234567,0,0,0.06234567901234567,14.96296296296296,0)" xlink:href="#bm"/><use transform="matrix(0.06234567901234567,0,0,0.06234567901234567,33.60432098765431,0)" xlink:href="#be"/><use transform="matrix(0.06234567901234567,0,0,0.06234567901234567,46.073456790123444,0)" xlink:href="#aZ"/><use transform="matrix(0.06234567901234567,0,0,0.06234567901234567,50.99876543209875,0)" xlink:href="#bD"/></g><path fill="#333" d="M96-169c-40 0-48 33-48 73s9 75 48 75c24 0 41-14 43-38l32 2c-6 37-31 61-74 61-59 0-76-41-82-99-10-93 101-131 147-64 4 7 5 14 7 22l-32 3c-4-21-16-35-41-35" id="bE"/><path fill="#333" d="M115-194c55 1 70 41 70 98S169 2 115 4C84 4 66-9 55-30l1 105H24l-1-265h31l2 30c10-21 28-34 59-34zm-8 174c40 0 45-34 45-75s-6-73-45-74c-42 0-51 32-51 76 0 43 10 73 51 73" id="bF"/><path fill="#333" d="M100-194c62-1 85 37 85 99 1 63-27 99-86 99S16-35 15-95c0-66 28-99 85-99zM99-20c44 1 53-31 53-75 0-43-8-75-51-75s-53 32-53 75 10 74 51 75" id="bG"/><path fill="#333" d="M117-194c89-4 53 116 60 194h-32v-121c0-31-8-49-39-48C34-167 62-67 57 0H25l-1-190h30c1 10-1 24 2 32 11-22 29-35 61-36" id="bH"/><g id="r"><use transform="matrix(0.06172839506172839,0,0,0.06172839506172839,0,0)" xlink:href="#aE"/><use transform="matrix(0.06172839506172839,0,0,0.06172839506172839,15.987654320987653,0)" xlink:href="#az"/><use transform="matrix(0.06172839506172839,0,0,0.06172839506172839,28.333333333333332,0)" xlink:href="#ay"/><use transform="matrix(0.06172839506172839,0,0,0.06172839506172839,39.44444444444444,0)" xlink:href="#bE"/><use transform="matrix(0.06172839506172839,0,0,0.06172839506172839,50.55555555555556,0)" xlink:href="#aA"/><use transform="matrix(0.06172839506172839,0,0,0.06172839506172839,57.901234567901234,0)" xlink:href="#aK"/><use transform="matrix(0.06172839506172839,0,0,0.06172839506172839,62.77777777777778,0)" xlink:href="#bF"/><use transform="matrix(0.06172839506172839,0,0,0.06172839506172839,75.12345679012346,0)" xlink:href="#aL"/><use transform="matrix(0.06172839506172839,0,0,0.06172839506172839,81.29629629629629,0)" xlink:href="#aK"/><use transform="matrix(0.06172839506172839,0,0,0.06172839506172839,86.17283950617283,0)" xlink:href="#bG"/><use transform="matrix(0.06172839506172839,0,0,0.06172839506172839,98.51851851851852,0)" xlink:href="#bH"/></g><g id="s"><use transform="matrix(0.06172839506172839,0,0,0.06172839506172839,0,0)" xlink:href="#aB"/><use transform="matrix(0.06172839506172839,0,0,0.06172839506172839,14.814814814814813,0)" xlink:href="#aC"/></g><g id="t"><use transform="matrix(0.06172839506172839,0,0,0.06172839506172839,0,0)" xlink:href="#aE"/><use transform="matrix(0.06172839506172839,0,0,0.06172839506172839,15.987654320987653,0)" xlink:href="#az"/><use transform="matrix(0.06172839506172839,0,0,0.06172839506172839,28.333333333333332,0)" xlink:href="#ay"/><use transform="matrix(0.06172839506172839,0,0,0.06172839506172839,39.44444444444444,0)" xlink:href="#bE"/><use transform="matrix(0.06172839506172839,0,0,0.06172839506172839,50.55555555555556,0)" xlink:href="#aA"/><use transform="matrix(0.06172839506172839,0,0,0.06172839506172839,57.901234567901234,0)" xlink:href="#aK"/><use transform="matrix(0.06172839506172839,0,0,0.06172839506172839,62.77777777777778,0)" xlink:href="#bF"/><use transform="matrix(0.06172839506172839,0,0,0.06172839506172839,75.12345679012346,0)" xlink:href="#aL"/><use transform="matrix(0.06172839506172839,0,0,0.06172839506172839,81.29629629629629,0)" xlink:href="#aK"/><use transform="matrix(0.06172839506172839,0,0,0.06172839506172839,86.17283950617283,0)" xlink:href="#bG"/><use transform="matrix(0.06172839506172839,0,0,0.06172839506172839,98.51851851851852,0)" xlink:href="#bH"/><use transform="matrix(0.06172839506172839,0,0,0.06172839506172839,110.8641975308642,0)" xlink:href="#aD"/><use transform="matrix(0.06172839506172839,0,0,0.06172839506172839,117.03703703703704,0)" xlink:href="#aE"/></g><g id="u"><use transform="matrix(0.06172839506172839,0,0,0.06172839506172839,0,0)" xlink:href="#aF"/><use transform="matrix(0.06172839506172839,0,0,0.06172839506172839,14.814814814814813,0)" xlink:href="#aD"/><use transform="matrix(0.06172839506172839,0,0,0.06172839506172839,20.98765432098765,0)" xlink:href="#aG"/><use transform="matrix(0.06172839506172839,0,0,0.06172839506172839,38.2716049382716,0)" xlink:href="#aD"/><use transform="matrix(0.06172839506172839,0,0,0.06172839506172839,44.44444444444444,0)" xlink:href="#aH"/><use transform="matrix(0.06172839506172839,0,0,0.06172839506172839,60.432098765432094,0)" xlink:href="#aI"/></g><path fill="#333" d="M141 0L90-78 38 0H4l68-98-65-92h35l48 74 47-74h35l-64 92 68 98h-35" id="bI"/><g id="v"><use transform="matrix(0.06172839506172839,0,0,0.06172839506172839,0,0)" xlink:href="#aI"/><use transform="matrix(0.06172839506172839,0,0,0.06172839506172839,11.049382716049381,0)" xlink:href="#az"/><use transform="matrix(0.06172839506172839,0,0,0.06172839506172839,23.39506172839506,0)" xlink:href="#bI"/><use transform="matrix(0.06172839506172839,0,0,0.06172839506172839,34.50617283950617,0)" xlink:href="#aL"/></g><path fill="#333" d="M27 0v-27h64v-190l-56 39v-29l58-41h29v221h61V0H27" id="bJ"/><path fill="#333" d="M101-251c68 0 85 55 85 127S166 4 100 4C33 4 14-52 14-124c0-73 17-127 87-127zm-1 229c47 0 54-49 54-102s-4-102-53-102c-51 0-55 48-55 102 0 53 5 102 54 102" id="bK"/><g id="w"><use transform="matrix(0.06172839506172839,0,0,0.06172839506172839,0,0)" xlink:href="#aH"/><use transform="matrix(0.06172839506172839,0,0,0.06172839506172839,15.987654320987653,0)" xlink:href="#aO"/><use transform="matrix(0.06172839506172839,0,0,0.06172839506172839,29.1358024691358,0)" xlink:href="#aP"/><use transform="matrix(0.06172839506172839,0,0,0.06172839506172839,43.95061728395061,0)" xlink:href="#aR"/><use transform="matrix(0.06172839506172839,0,0,0.06172839506172839,59.938271604938265,0)" xlink:href="#aQ"/><use transform="matrix(0.06172839506172839,0,0,0.06172839506172839,75.92592592592592,0)" xlink:href="#aS"/><use transform="matrix(0.06172839506172839,0,0,0.06172839506172839,91.91358024691358,0)" xlink:href="#aP"/><use transform="matrix(0.06172839506172839,0,0,0.06172839506172839,106.72839506172839,0)" xlink:href="#aQ"/><use transform="matrix(0.06172839506172839,0,0,0.06172839506172839,122.71604938271605,0)" xlink:href="#aT"/><use transform="matrix(0.06172839506172839,0,0,0.06172839506172839,130.06172839506172,0)" xlink:href="#bJ"/><use transform="matrix(0.06172839506172839,0,0,0.06172839506172839,142.4074074074074,0)" xlink:href="#bK"/><use transform="matrix(0.06172839506172839,0,0,0.06172839506172839,154.75308641975306,0)" xlink:href="#bK"/><use transform="matrix(0.06172839506172839,0,0,0.06172839506172839,167.09876543209873,0)" xlink:href="#aW"/></g><path fill="#333" d="M30 0v-248h187v28H63v79h144v27H63v87h162V0H30" id="bL"/><path fill="#333" d="M177-190C167-65 218 103 67 71c-23-6-38-20-44-43l32-5c15 47 100 32 89-28v-30C133-14 115 1 83 1 29 1 15-40 15-95c0-56 16-97 71-98 29-1 48 16 59 35 1-10 0-23 2-32h30zM94-22c36 0 50-32 50-73 0-42-14-75-50-75-39 0-46 34-46 75s6 73 46 73" id="bM"/><path fill="#333" d="M179-190L93 31C79 59 56 82 12 73V49c39 6 53-20 64-50L1-190h34L92-34l54-156h33" id="bN"/><g id="x"><use transform="matrix(0.06172839506172839,0,0,0.06172839506172839,0,0)" xlink:href="#bL"/><use transform="matrix(0.06172839506172839,0,0,0.06172839506172839,14.814814814814813,0)" xlink:href="#aN"/><use transform="matrix(0.06172839506172839,0,0,0.06172839506172839,33.2716049382716,0)" xlink:href="#bG"/><use transform="matrix(0.06172839506172839,0,0,0.06172839506172839,45.61728395061728,0)" xlink:href="#aL"/><use transform="matrix(0.06172839506172839,0,0,0.06172839506172839,51.79012345679012,0)" xlink:href="#aK"/><use transform="matrix(0.06172839506172839,0,0,0.06172839506172839,56.666666666666664,0)" xlink:href="#bG"/><use transform="matrix(0.06172839506172839,0,0,0.06172839506172839,69.01234567901234,0)" xlink:href="#bH"/><use transform="matrix(0.06172839506172839,0,0,0.06172839506172839,81.35802469135803,0)" xlink:href="#aR"/><use transform="matrix(0.06172839506172839,0,0,0.06172839506172839,97.34567901234568,0)" xlink:href="#aM"/><use transform="matrix(0.06172839506172839,0,0,0.06172839506172839,109.69135802469137,0)" xlink:href="#aL"/><use transform="matrix(0.06172839506172839,0,0,0.06172839506172839,115.8641975308642,0)" xlink:href="#az"/><use transform="matrix(0.06172839506172839,0,0,0.06172839506172839,128.20987654320987,0)" xlink:href="#bM"/><use transform="matrix(0.06172839506172839,0,0,0.06172839506172839,140.55555555555554,0)" xlink:href="#bG"/><use transform="matrix(0.06172839506172839,0,0,0.06172839506172839,152.9012345679012,0)" xlink:href="#aA"/><use transform="matrix(0.06172839506172839,0,0,0.06172839506172839,160.24691358024688,0)" xlink:href="#bN"/></g><g id="y"><use transform="matrix(0.06172839506172839,0,0,0.06172839506172839,0,0)" xlink:href="#bL"/><use transform="matrix(0.06172839506172839,0,0,0.06172839506172839,14.814814814814813,0)" xlink:href="#aN"/><use transform="matrix(0.06172839506172839,0,0,0.06172839506172839,33.2716049382716,0)" xlink:href="#bG"/><use transform="matrix(0.06172839506172839,0,0,0.06172839506172839,45.61728395061728,0)" xlink:href="#aL"/><use transform="matrix(0.06172839506172839,0,0,0.06172839506172839,51.79012345679012,0)" xlink:href="#aK"/><use transform="matrix(0.06172839506172839,0,0,0.06172839506172839,56.666666666666664,0)" xlink:href="#bG"/><use transform="matrix(0.06172839506172839,0,0,0.06172839506172839,69.01234567901234,0)" xlink:href="#bH"/><use transform="matrix(0.06172839506172839,0,0,0.06172839506172839,81.35802469135803,0)" xlink:href="#aR"/><use transform="matrix(0.06172839506172839,0,0,0.06172839506172839,97.34567901234568,0)" xlink:href="#aM"/><use transform="matrix(0.06172839506172839,0,0,0.06172839506172839,109.69135802469137,0)" xlink:href="#aL"/><use transform="matrix(0.06172839506172839,0,0,0.06172839506172839,115.8641975308642,0)" xlink:href="#az"/><use transform="matrix(0.06172839506172839,0,0,0.06172839506172839,128.20987654320987,0)" xlink:href="#bM"/><use transform="matrix(0.06172839506172839,0,0,0.06172839506172839,140.55555555555554,0)" xlink:href="#bG"/><use transform="matrix(0.06172839506172839,0,0,0.06172839506172839,152.9012345679012,0)" xlink:href="#aA"/><use transform="matrix(0.06172839506172839,0,0,0.06172839506172839,160.24691358024688,0)" xlink:href="#bN"/><use transform="matrix(0.06172839506172839,0,0,0.06172839506172839,171.358024691358,0)" xlink:href="#aD"/><use transform="matrix(0.06172839506172839,0,0,0.06172839506172839,177.53086419753083,0)" xlink:href="#aE"/></g><g id="z"><use transform="matrix(0.06172839506172839,0,0,0.06172839506172839,0,0)" xlink:href="#aH"/><use transform="matrix(0.06172839506172839,0,0,0.06172839506172839,15.987654320987653,0)" xlink:href="#aM"/><use transform="matrix(0.06172839506172839,0,0,0.06172839506172839,28.333333333333332,0)" xlink:href="#aN"/><use transform="matrix(0.06172839506172839,0,0,0.06172839506172839,46.79012345679012,0)" xlink:href="#az"/></g><g id="A"><use transform="matrix(0.06172839506172839,0,0,0.06172839506172839,0,0)" xlink:href="#aH"/><use transform="matrix(0.06172839506172839,0,0,0.06172839506172839,15.987654320987653,0)" xlink:href="#aO"/><use transform="matrix(0.06172839506172839,0,0,0.06172839506172839,29.1358024691358,0)" xlink:href="#aP"/><use transform="matrix(0.06172839506172839,0,0,0.06172839506172839,43.95061728395061,0)" xlink:href="#aQ"/><use transform="matrix(0.06172839506172839,0,0,0.06172839506172839,59.938271604938265,0)" xlink:href="#aR"/><use transform="matrix(0.06172839506172839,0,0,0.06172839506172839,75.92592592592592,0)" xlink:href="#aS"/><use transform="matrix(0.06172839506172839,0,0,0.06172839506172839,91.91358024691358,0)" xlink:href="#aP"/><use transform="matrix(0.06172839506172839,0,0,0.06172839506172839,106.72839506172839,0)" xlink:href="#aQ"/><use transform="matrix(0.06172839506172839,0,0,0.06172839506172839,122.71604938271605,0)" xlink:href="#aT"/><use transform="matrix(0.06172839506172839,0,0,0.06172839506172839,130.06172839506172,0)" xlink:href="#aV"/><use transform="matrix(0.06172839506172839,0,0,0.06172839506172839,142.4074074074074,0)" xlink:href="#bK"/><use transform="matrix(0.06172839506172839,0,0,0.06172839506172839,154.75308641975306,0)" xlink:href="#aW"/></g><g id="B"><use transform="matrix(0.06172839506172839,0,0,0.06172839506172839,0,0)" xlink:href="#aJ"/><use transform="matrix(0.06172839506172839,0,0,0.06172839506172839,13.518518518518517,0)" xlink:href="#aC"/></g><path fill="#333" d="M24 0v-261h32V0H24" id="bO"/><g id="C"><use transform="matrix(0.06172839506172839,0,0,0.06172839506172839,0,0)" xlink:href="#aO"/><use transform="matrix(0.06172839506172839,0,0,0.06172839506172839,13.148148148148147,0)" xlink:href="#aM"/><use transform="matrix(0.06172839506172839,0,0,0.06172839506172839,25.493827160493826,0)" xlink:href="#bO"/><use transform="matrix(0.06172839506172839,0,0,0.06172839506172839,30.370370370370367,0)" xlink:href="#az"/><use transform="matrix(0.06172839506172839,0,0,0.06172839506172839,42.716049382716044,0)" xlink:href="#bH"/><use transform="matrix(0.06172839506172839,0,0,0.06172839506172839,55.06172839506172,0)" xlink:href="#bE"/><use transform="matrix(0.06172839506172839,0,0,0.06172839506172839,66.17283950617283,0)" xlink:href="#az"/><use transform="matrix(0.06172839506172839,0,0,0.06172839506172839,78.51851851851852,0)" xlink:href="#aD"/><use transform="matrix(0.06172839506172839,0,0,0.06172839506172839,84.69135802469135,0)" xlink:href="#aE"/></g><g id="D"><use transform="matrix(0.06172839506172839,0,0,0.06172839506172839,0,0)" xlink:href="#bL"/><use transform="matrix(0.06172839506172839,0,0,0.06172839506172839,14.814814814814813,0)" xlink:href="#aN"/><use transform="matrix(0.06172839506172839,0,0,0.06172839506172839,33.2716049382716,0)" xlink:href="#bG"/><use transform="matrix(0.06172839506172839,0,0,0.06172839506172839,45.61728395061728,0)" xlink:href="#aL"/><use transform="matrix(0.06172839506172839,0,0,0.06172839506172839,51.79012345679012,0)" xlink:href="#aK"/><use transform="matrix(0.06172839506172839,0,0,0.06172839506172839,56.666666666666664,0)" xlink:href="#bG"/><use transform="matrix(0.06172839506172839,0,0,0.06172839506172839,69.01234567901234,0)" xlink:href="#bH"/><use transform="matrix(0.06172839506172839,0,0,0.06172839506172839,81.35802469135803,0)" xlink:href="#aO"/><use transform="matrix(0.06172839506172839,0,0,0.06172839506172839,94.50617283950616,0)" xlink:href="#aM"/><use transform="matrix(0.06172839506172839,0,0,0.06172839506172839,106.85185185185185,0)" xlink:href="#bO"/><use transform="matrix(0.06172839506172839,0,0,0.06172839506172839,111.72839506172839,0)" xlink:href="#az"/><use transform="matrix(0.06172839506172839,0,0,0.06172839506172839,124.07407407407408,0)" xlink:href="#bH"/><use transform="matrix(0.06172839506172839,0,0,0.06172839506172839,136.41975308641975,0)" xlink:href="#bE"/><use transform="matrix(0.06172839506172839,0,0,0.06172839506172839,147.53086419753086,0)" xlink:href="#az"/></g><path fill="#333" d="M101-251c82-7 93 87 43 132L82-64C71-53 59-42 53-27h129V0H18c2-99 128-94 128-182 0-28-16-43-45-43s-46 15-49 41l-32-3c6-41 34-60 81-64" id="bP"/><g id="E"><use transform="matrix(0.06172839506172839,0,0,0.06172839506172839,0,0)" xlink:href="#aH"/><use transform="matrix(0.06172839506172839,0,0,0.06172839506172839,15.987654320987653,0)" xlink:href="#aO"/><use transform="matrix(0.06172839506172839,0,0,0.06172839506172839,29.1358024691358,0)" xlink:href="#aP"/><use transform="matrix(0.06172839506172839,0,0,0.06172839506172839,43.95061728395061,0)" xlink:href="#aQ"/><use transform="matrix(0.06172839506172839,0,0,0.06172839506172839,59.938271604938265,0)" xlink:href="#aR"/><use transform="matrix(0.06172839506172839,0,0,0.06172839506172839,75.92592592592592,0)" xlink:href="#aS"/><use transform="matrix(0.06172839506172839,0,0,0.06172839506172839,91.91358024691358,0)" xlink:href="#aP"/><use transform="matrix(0.06172839506172839,0,0,0.06172839506172839,106.72839506172839,0)" xlink:href="#aQ"/><use transform="matrix(0.06172839506172839,0,0,0.06172839506172839,122.71604938271605,0)" xlink:href="#aT"/><use transform="matrix(0.06172839506172839,0,0,0.06172839506172839,130.06172839506172,0)" xlink:href="#bP"/><use transform="matrix(0.06172839506172839,0,0,0.06172839506172839,142.4074074074074,0)" xlink:href="#aV"/><use transform="matrix(0.06172839506172839,0,0,0.06172839506172839,154.75308641975306,0)" xlink:href="#aW"/></g><g id="F"><use transform="matrix(0.06172839506172839,0,0,0.06172839506172839,0,0)" xlink:href="#bL"/><use transform="matrix(0.06172839506172839,0,0,0.06172839506172839,14.814814814814813,0)" xlink:href="#aN"/><use transform="matrix(0.06172839506172839,0,0,0.06172839506172839,33.2716049382716,0)" xlink:href="#bG"/><use transform="matrix(0.06172839506172839,0,0,0.06172839506172839,45.61728395061728,0)" xlink:href="#aL"/><use transform="matrix(0.06172839506172839,0,0,0.06172839506172839,51.79012345679012,0)" xlink:href="#aK"/><use transform="matrix(0.06172839506172839,0,0,0.06172839506172839,56.666666666666664,0)" xlink:href="#bG"/><use transform="matrix(0.06172839506172839,0,0,0.06172839506172839,69.01234567901234,0)" xlink:href="#bH"/></g><g id="G"><use transform="matrix(0.06172839506172839,0,0,0.06172839506172839,0,0)" xlink:href="#bL"/><use transform="matrix(0.06172839506172839,0,0,0.06172839506172839,14.814814814814813,0)" xlink:href="#aN"/><use transform="matrix(0.06172839506172839,0,0,0.06172839506172839,33.2716049382716,0)" xlink:href="#bG"/><use transform="matrix(0.06172839506172839,0,0,0.06172839506172839,45.61728395061728,0)" xlink:href="#aL"/><use transform="matrix(0.06172839506172839,0,0,0.06172839506172839,51.79012345679012,0)" xlink:href="#aK"/><use transform="matrix(0.06172839506172839,0,0,0.06172839506172839,56.666666666666664,0)" xlink:href="#bG"/><use transform="matrix(0.06172839506172839,0,0,0.06172839506172839,69.01234567901234,0)" xlink:href="#bH"/><use transform="matrix(0.06172839506172839,0,0,0.06172839506172839,81.35802469135803,0)" xlink:href="#aD"/><use transform="matrix(0.06172839506172839,0,0,0.06172839506172839,87.53086419753086,0)" xlink:href="#aE"/></g><path fill="#333" d="M185-189c-5-48-123-54-124 2 14 75 158 14 163 119 3 78-121 87-175 55-17-10-28-26-33-46l33-7c5 56 141 63 141-1 0-78-155-14-162-118-5-82 145-84 179-34 5 7 8 16 11 25" id="bQ"/><path fill="#333" d="M108 0H70L1-190h34L89-25l56-165h34" id="bR"/><g id="H"><use transform="matrix(0.06172839506172839,0,0,0.06172839506172839,0,0)" xlink:href="#bQ"/><use transform="matrix(0.06172839506172839,0,0,0.06172839506172839,14.814814814814813,0)" xlink:href="#bG"/><use transform="matrix(0.06172839506172839,0,0,0.06172839506172839,27.160493827160494,0)" xlink:href="#bE"/><use transform="matrix(0.06172839506172839,0,0,0.06172839506172839,38.27160493827161,0)" xlink:href="#aK"/><use transform="matrix(0.06172839506172839,0,0,0.06172839506172839,43.14814814814815,0)" xlink:href="#aM"/><use transform="matrix(0.06172839506172839,0,0,0.06172839506172839,55.49382716049383,0)" xlink:href="#bO"/><use transform="matrix(0.06172839506172839,0,0,0.06172839506172839,60.370370370370374,0)" xlink:href="#bL"/><use transform="matrix(0.06172839506172839,0,0,0.06172839506172839,75.18518518518519,0)" xlink:href="#bH"/><use transform="matrix(0.06172839506172839,0,0,0.06172839506172839,87.53086419753087,0)" xlink:href="#bR"/><use transform="matrix(0.06172839506172839,0,0,0.06172839506172839,98.64197530864199,0)" xlink:href="#aK"/><use transform="matrix(0.06172839506172839,0,0,0.06172839506172839,103.51851851851853,0)" xlink:href="#aA"/><use transform="matrix(0.06172839506172839,0,0,0.06172839506172839,110.86419753086422,0)" xlink:href="#bG"/><use transform="matrix(0.06172839506172839,0,0,0.06172839506172839,123.2098765432099,0)" xlink:href="#bH"/><use transform="matrix(0.06172839506172839,0,0,0.06172839506172839,135.55555555555557,0)" xlink:href="#aN"/><use transform="matrix(0.06172839506172839,0,0,0.06172839506172839,154.01234567901236,0)" xlink:href="#az"/><use transform="matrix(0.06172839506172839,0,0,0.06172839506172839,166.35802469135803,0)" xlink:href="#bH"/><use transform="matrix(0.06172839506172839,0,0,0.06172839506172839,178.7037037037037,0)" xlink:href="#aL"/></g><g id="I"><use transform="matrix(0.06172839506172839,0,0,0.06172839506172839,0,0)" xlink:href="#bQ"/><use transform="matrix(0.06172839506172839,0,0,0.06172839506172839,14.814814814814813,0)" xlink:href="#bG"/><use transform="matrix(0.06172839506172839,0,0,0.06172839506172839,27.160493827160494,0)" xlink:href="#bE"/><use transform="matrix(0.06172839506172839,0,0,0.06172839506172839,38.27160493827161,0)" xlink:href="#aK"/><use transform="matrix(0.06172839506172839,0,0,0.06172839506172839,43.14814814814815,0)" xlink:href="#aM"/><use transform="matrix(0.06172839506172839,0,0,0.06172839506172839,55.49382716049383,0)" xlink:href="#bO"/><use transform="matrix(0.06172839506172839,0,0,0.06172839506172839,60.370370370370374,0)" xlink:href="#bL"/><use transform="matrix(0.06172839506172839,0,0,0.06172839506172839,75.18518518518519,0)" xlink:href="#bH"/><use transform="matrix(0.06172839506172839,0,0,0.06172839506172839,87.53086419753087,0)" xlink:href="#bR"/><use transform="matrix(0.06172839506172839,0,0,0.06172839506172839,98.64197530864199,0)" xlink:href="#aK"/><use transform="matrix(0.06172839506172839,0,0,0.06172839506172839,103.51851851851853,0)" xlink:href="#aA"/><use transform="matrix(0.06172839506172839,0,0,0.06172839506172839,110.86419753086422,0)" xlink:href="#bG"/><use transform="matrix(0.06172839506172839,0,0,0.06172839506172839,123.2098765432099,0)" xlink:href="#bH"/><use transform="matrix(0.06172839506172839,0,0,0.06172839506172839,135.55555555555557,0)" xlink:href="#aN"/><use transform="matrix(0.06172839506172839,0,0,0.06172839506172839,154.01234567901236,0)" xlink:href="#az"/><use transform="matrix(0.06172839506172839,0,0,0.06172839506172839,166.35802469135803,0)" xlink:href="#bH"/><use transform="matrix(0.06172839506172839,0,0,0.06172839506172839,178.7037037037037,0)" xlink:href="#aL"/><use transform="matrix(0.06172839506172839,0,0,0.06172839506172839,184.87654320987653,0)" xlink:href="#aD"/><use transform="matrix(0.06172839506172839,0,0,0.06172839506172839,191.04938271604937,0)" xlink:href="#aE"/></g><g id="J"><use transform="matrix(0.06172839506172839,0,0,0.06172839506172839,0,0)" xlink:href="#aQ"/><use transform="matrix(0.06172839506172839,0,0,0.06172839506172839,15.987654320987653,0)" xlink:href="#az"/><use transform="matrix(0.06172839506172839,0,0,0.06172839506172839,28.333333333333332,0)" xlink:href="#bO"/><use transform="matrix(0.06172839506172839,0,0,0.06172839506172839,33.20987654320987,0)" xlink:href="#aM"/><use transform="matrix(0.06172839506172839,0,0,0.06172839506172839,45.55555555555555,0)" xlink:href="#aL"/><use transform="matrix(0.06172839506172839,0,0,0.06172839506172839,51.72839506172839,0)" xlink:href="#aK"/><use transform="matrix(0.06172839506172839,0,0,0.06172839506172839,56.60493827160494,0)" xlink:href="#bG"/><use transform="matrix(0.06172839506172839,0,0,0.06172839506172839,68.95061728395062,0)" xlink:href="#bH"/></g><g id="K"><use transform="matrix(0.06172839506172839,0,0,0.06172839506172839,0,0)" xlink:href="#aD"/><use transform="matrix(0.06172839506172839,0,0,0.06172839506172839,6.172839506172839,0)" xlink:href="#ay"/><use transform="matrix(0.06172839506172839,0,0,0.06172839506172839,17.28395061728395,0)" xlink:href="#aX"/><use transform="matrix(0.06172839506172839,0,0,0.06172839506172839,29.629629629629626,0)" xlink:href="#bG"/><use transform="matrix(0.06172839506172839,0,0,0.06172839506172839,41.9753086419753,0)" xlink:href="#bE"/><use transform="matrix(0.06172839506172839,0,0,0.06172839506172839,53.08641975308642,0)" xlink:href="#aM"/><use transform="matrix(0.06172839506172839,0,0,0.06172839506172839,65.4320987654321,0)" xlink:href="#aL"/><use transform="matrix(0.06172839506172839,0,0,0.06172839506172839,71.60493827160494,0)" xlink:href="#aK"/><use transform="matrix(0.06172839506172839,0,0,0.06172839506172839,76.48148148148148,0)" xlink:href="#bG"/><use transform="matrix(0.06172839506172839,0,0,0.06172839506172839,88.82716049382717,0)" xlink:href="#bH"/></g><g id="L"><use transform="matrix(0.06172839506172839,0,0,0.06172839506172839,0,0)" xlink:href="#aF"/><use transform="matrix(0.06172839506172839,0,0,0.06172839506172839,14.814814814814813,0)" xlink:href="#aD"/><use transform="matrix(0.06172839506172839,0,0,0.06172839506172839,20.98765432098765,0)" xlink:href="#aI"/></g><g id="M"><use transform="matrix(0.06172839506172839,0,0,0.06172839506172839,0,0)" xlink:href="#bL"/><use transform="matrix(0.06172839506172839,0,0,0.06172839506172839,14.814814814814813,0)" xlink:href="#aN"/><use transform="matrix(0.06172839506172839,0,0,0.06172839506172839,33.2716049382716,0)" xlink:href="#bG"/><use transform="matrix(0.06172839506172839,0,0,0.06172839506172839,45.61728395061728,0)" xlink:href="#aL"/><use transform="matrix(0.06172839506172839,0,0,0.06172839506172839,51.79012345679012,0)" xlink:href="#aK"/><use transform="matrix(0.06172839506172839,0,0,0.06172839506172839,56.666666666666664,0)" xlink:href="#bG"/><use transform="matrix(0.06172839506172839,0,0,0.06172839506172839,69.01234567901234,0)" xlink:href="#bH"/><use transform="matrix(0.06172839506172839,0,0,0.06172839506172839,81.35802469135803,0)" xlink:href="#aX"/><use transform="matrix(0.06172839506172839,0,0,0.06172839506172839,93.70370370370371,0)" xlink:href="#bG"/><use transform="matrix(0.06172839506172839,0,0,0.06172839506172839,106.0493827160494,0)" xlink:href="#bM"/></g><g id="N"><use transform="matrix(0.06172839506172839,0,0,0.06172839506172839,0,0)" xlink:href="#bL"/><use transform="matrix(0.06172839506172839,0,0,0.06172839506172839,14.814814814814813,0)" xlink:href="#aN"/><use transform="matrix(0.06172839506172839,0,0,0.06172839506172839,33.2716049382716,0)" xlink:href="#bG"/><use transform="matrix(0.06172839506172839,0,0,0.06172839506172839,45.61728395061728,0)" xlink:href="#aL"/><use transform="matrix(0.06172839506172839,0,0,0.06172839506172839,51.79012345679012,0)" xlink:href="#aK"/><use transform="matrix(0.06172839506172839,0,0,0.06172839506172839,56.666666666666664,0)" xlink:href="#bG"/><use transform="matrix(0.06172839506172839,0,0,0.06172839506172839,69.01234567901234,0)" xlink:href="#bH"/><use transform="matrix(0.06172839506172839,0,0,0.06172839506172839,81.35802469135803,0)" xlink:href="#aX"/><use transform="matrix(0.06172839506172839,0,0,0.06172839506172839,93.70370370370371,0)" xlink:href="#bG"/><use transform="matrix(0.06172839506172839,0,0,0.06172839506172839,106.0493827160494,0)" xlink:href="#bM"/><use transform="matrix(0.06172839506172839,0,0,0.06172839506172839,118.39506172839508,0)" xlink:href="#aD"/><use transform="matrix(0.06172839506172839,0,0,0.06172839506172839,124.56790123456791,0)" xlink:href="#aE"/></g><path d="M63-220v92h138v28H63V0H30v-248h175v28H63" id="bS"/><path d="M194 0L95-120 63-95V0H30v-248h33v124l119-124h40L117-140 236 0h-42" id="bT"/><g id="O"><use transform="matrix(0.06234567901234567,0,0,0.06234567901234567,0,0)" xlink:href="#bS"/><use transform="matrix(0.06234567901234567,0,0,0.06234567901234567,13.653703703703702,0)" xlink:href="#bT"/></g><path d="M33 0v-248h34V0H33" id="bU"/><g id="P"><use transform="matrix(0.06234567901234567,0,0,0.06234567901234567,0,0)" xlink:href="#bi"/><use transform="matrix(0.06234567901234567,0,0,0.06234567901234567,14.96296296296296,0)" xlink:href="#bm"/><use transform="matrix(0.06234567901234567,0,0,0.06234567901234567,33.60432098765431,0)" xlink:href="#by"/><use transform="matrix(0.06234567901234567,0,0,0.06234567901234567,46.073456790123444,0)" xlink:href="#bb"/><use transform="matrix(0.06234567901234567,0,0,0.06234567901234567,52.308024691358014,0)" xlink:href="#aZ"/><use transform="matrix(0.06234567901234567,0,0,0.06234567901234567,57.23333333333332,0)" xlink:href="#by"/><use transform="matrix(0.06234567901234567,0,0,0.06234567901234567,69.70246913580246,0)" xlink:href="#bl"/><use transform="matrix(0.06234567901234567,0,0,0.06234567901234567,82.1716049382716,0)" xlink:href="#bU"/><use transform="matrix(0.06234567901234567,0,0,0.06234567901234567,88.40617283950617,0)" xlink:href="#bd"/></g><g id="Q"><use transform="matrix(0.06234567901234567,0,0,0.06234567901234567,0,0)" xlink:href="#aY"/><use transform="matrix(0.06234567901234567,0,0,0.06234567901234567,14.96296296296296,0)" xlink:href="#bU"/><use transform="matrix(0.06234567901234567,0,0,0.06234567901234567,21.197530864197525,0)" xlink:href="#bB"/><use transform="matrix(0.06234567901234567,0,0,0.06234567901234567,38.654320987654316,0)" xlink:href="#bU"/><use transform="matrix(0.06234567901234567,0,0,0.06234567901234567,44.888888888888886,0)" xlink:href="#bn"/><use transform="matrix(0.06234567901234567,0,0,0.06234567901234567,61.03641975308641,0)" xlink:href="#bh"/></g><g id="R"><use transform="matrix(0.06172839506172839,0,0,0.06172839506172839,0,0)" xlink:href="#ax"/><use transform="matrix(0.06172839506172839,0,0,0.06172839506172839,15.987654320987653,0)" xlink:href="#ay"/><use transform="matrix(0.06172839506172839,0,0,0.06172839506172839,27.098765432098766,0)" xlink:href="#az"/><use transform="matrix(0.06172839506172839,0,0,0.06172839506172839,39.44444444444444,0)" xlink:href="#aA"/><use transform="matrix(0.06172839506172839,0,0,0.06172839506172839,46.79012345679012,0)" xlink:href="#aD"/><use transform="matrix(0.06172839506172839,0,0,0.06172839506172839,52.96296296296296,0)" xlink:href="#aE"/></g><g id="S"><use transform="matrix(0.06172839506172839,0,0,0.06172839506172839,0,0)" xlink:href="#aE"/><use transform="matrix(0.06172839506172839,0,0,0.06172839506172839,15.987654320987653,0)" xlink:href="#aM"/><use transform="matrix(0.06172839506172839,0,0,0.06172839506172839,28.333333333333332,0)" xlink:href="#aL"/><use transform="matrix(0.06172839506172839,0,0,0.06172839506172839,34.50617283950617,0)" xlink:href="#az"/></g><g id="T"><use transform="matrix(0.06172839506172839,0,0,0.06172839506172839,0,0)" xlink:href="#aE"/><use transform="matrix(0.06172839506172839,0,0,0.06172839506172839,15.987654320987653,0)" xlink:href="#aP"/><use transform="matrix(0.06172839506172839,0,0,0.06172839506172839,29.1358024691358,0)" xlink:href="#aI"/><use transform="matrix(0.06172839506172839,0,0,0.06172839506172839,42.654320987654316,0)" xlink:href="#bL"/></g><path fill="#333" d="M130 0H70L30-248h54l24 206c31-72 69-137 103-206h54" id="bV"/><path fill="#333" d="M166-52c-4 17 5 29 24 23l-3 27c-30 11-74 1-67-34C105-15 91 4 56 4 23 4 3-15 2-49c0-64 63-67 128-67 10-22 3-53-29-45-13 3-22 10-25 24l-46-5c5-64 156-77 153 0-1 33-11 60-17 90zM97-88c-44-9-64 57-19 57 31 0 42-28 47-57H97" id="bW"/><path fill="#333" d="M6 0l51-261h49L55 0H6" id="bX"/><path fill="#333" d="M114-194c63-2 87 48 72 110H63c-3 28 1 55 31 54 21-1 32-13 37-29l44 13C160-14 137 4 91 4 41 4 11-22 11-73c0-71 33-119 103-121zm30 77c14-47-50-61-67-22-3 6-6 13-8 22h75" id="bY"/><path fill="#333" d="M151-194c95 0 34 128 28 194h-49l25-134c0-29-45-25-59-9C67-111 69-48 56 0H6l36-190h47l-4 32c15-20 33-36 66-36" id="bZ"/><path fill="#333" d="M67-101c-8 29-7 73 27 71 23-2 32-16 39-37l48 9C170-19 141 4 91 4 36 4 7-28 12-86c6-75 61-124 140-103 26 7 40 29 43 59l-50 4c-1-20-9-34-29-34-35 0-41 29-49 59" id="ca"/><path fill="#333" d="M6 0l48-248h52L58 0H6" id="cb"/><path fill="#333" d="M250-142C247-53 197 0 108 0H6l48-248c105-5 200 3 196 106zm-49 2c1-57-42-72-103-68L66-40c84 6 135-22 135-100" id="cc"/><path fill="#333" d="M44-154l7-36h35l-8 36H44zM14 0l7-36h35L49 0H14" id="cd"/><g id="U"><use transform="matrix(0.06172839506172839,0,0,0.06172839506172839,0,0)" xlink:href="#bV"/><use transform="matrix(0.06172839506172839,0,0,0.06172839506172839,14.012345679012345,0)" xlink:href="#bW"/><use transform="matrix(0.06172839506172839,0,0,0.06172839506172839,26.358024691358025,0)" xlink:href="#bX"/><use transform="matrix(0.06172839506172839,0,0,0.06172839506172839,32.53086419753087,0)" xlink:href="#bY"/><use transform="matrix(0.06172839506172839,0,0,0.06172839506172839,44.876543209876544,0)" xlink:href="#bZ"/><use transform="matrix(0.06172839506172839,0,0,0.06172839506172839,58.39506172839506,0)" xlink:href="#ca"/><use transform="matrix(0.06172839506172839,0,0,0.06172839506172839,70.74074074074075,0)" xlink:href="#bY"/><use transform="matrix(0.06172839506172839,0,0,0.06172839506172839,83.08641975308643,0)" xlink:href="#cb"/><use transform="matrix(0.06172839506172839,0,0,0.06172839506172839,89.25925925925927,0)" xlink:href="#cc"/><use transform="matrix(0.06172839506172839,0,0,0.06172839506172839,105.24691358024693,0)" xlink:href="#cd"/></g><path fill="#333" d="M18-82l6-28h88l-6 28H18" id="ce"/><path fill="#333" d="M9 0l6-27h63l36-188-63 39 6-31 66-41h29L110-27h60l-5 27H9" id="cf"/><path fill="#333" d="M58-38C53-5 46 26 28 46H7C19 32 27 18 32 0H17l7-38h34" id="cg"/><g id="V"><use transform="matrix(0.06172839506172839,0,0,0.06172839506172839,0,0)" xlink:href="#ce"/><use transform="matrix(0.06172839506172839,0,0,0.06172839506172839,7.345679012345679,0)" xlink:href="#cf"/><use transform="matrix(0.06172839506172839,0,0,0.06172839506172839,19.691358024691358,0)" xlink:href="#cg"/></g><path fill="#333" d="M16-82c0-90 25-169 113-169 48 0 68 33 68 82C197-79 170 4 84 4 37 4 16-31 16-82zm30 5c0 32 11 55 40 55 69 0 76-79 80-149 2-32-10-55-39-55-69 0-81 81-81 149" id="ch"/><use transform="matrix(0.06172839506172839,0,0,0.06172839506172839,0,0)" xlink:href="#ch" id="W"/><path fill="#333" d="M30-147c31-64 166-65 159 27C183-49 158 1 86 4 9 8 1-88 30-147zM88-20c53 0 68-48 68-100 0-31-11-51-44-50-52 1-68 46-68 97 0 32 13 53 44 53" id="ci"/><path fill="#333" d="M66-151c12-25 30-51 66-40l-6 26C45-176 58-65 38 0H6l36-190h30" id="cj"/><g id="X"><use transform="matrix(0.06172839506172839,0,0,0.06172839506172839,0,0)" xlink:href="#ci"/><use transform="matrix(0.06172839506172839,0,0,0.06172839506172839,12.345679012345679,0)" xlink:href="#cj"/></g><use transform="matrix(0.06172839506172839,0,0,0.06172839506172839,0,0)" xlink:href="#cf" id="Y"/><path fill="#333" d="M155 0L90-199 52 0H6l48-248h62l66 201 38-201h46L218 0h-63" id="ck"/><path fill="#333" d="M255-194c90 0 29 129 24 194h-49l25-136c-7-39-53-14-60 9-12 38-18 85-28 127h-49l25-136c2-29-39-23-50-7C69-108 68-47 56 0H6l36-190h48c-1 10-6 24-4 32 12-20 27-36 57-36s46 15 50 41c14-21 29-41 62-41" id="cl"/><g id="Z"><use transform="matrix(0.06172839506172839,0,0,0.06172839506172839,0,0)" xlink:href="#ck"/><use transform="matrix(0.06172839506172839,0,0,0.06172839506172839,15.987654320987653,0)" xlink:href="#bW"/><use transform="matrix(0.06172839506172839,0,0,0.06172839506172839,28.333333333333332,0)" xlink:href="#cl"/><use transform="matrix(0.06172839506172839,0,0,0.06172839506172839,48.08641975308642,0)" xlink:href="#bY"/><use transform="matrix(0.06172839506172839,0,0,0.06172839506172839,60.432098765432094,0)" xlink:href="#cd"/></g><path fill="#333" d="M67-162c32-53 139-36 121 50C175-51 163 2 97 4 68 4 52-11 42-31 38 6 28 39 22 75H-9l50-265h29c-1 10 0 20-3 28zm89 36c0-26-10-43-35-43-54 0-67 50-69 103-1 29 14 45 42 46 53 0 62-58 62-106" id="cm"/><path fill="#333" d="M55-144c13 50 104 24 104 88C159 21 15 23 1-39l26-10c6 40 102 42 102-4-13-50-104-23-104-87 0-71 143-71 148-8l-29 4c-5-35-85-37-89 0" id="cn"/><path fill="#333" d="M50-231l6-30h32l-6 30H50zM6 0l37-190h31L37 0H6" id="co"/><path fill="#333" d="M51-54c-9 22 5 41 31 30L79-1C43 14 10-4 19-52l22-115H19l5-23h22l19-43h21l-9 43h35l-4 23H73" id="cp"/><path fill="#333" d="M89 0H52L20-190h33L74-25l89-165h34" id="cq"/><path fill="#333" d="M111-194c62-3 86 47 72 106H45c-7 38 6 69 45 68 27-1 43-14 53-32l24 11C152-15 129 4 87 4 38 3 12-23 12-71c0-70 32-119 99-123zm44 81c14-66-71-72-95-28-4 8-8 17-11 28h106" id="cr"/><g id="aa"><use transform="matrix(0.06172839506172839,0,0,0.06172839506172839,0,0)" xlink:href="#cm"/><use transform="matrix(0.06172839506172839,0,0,0.06172839506172839,12.345679012345679,0)" xlink:href="#ci"/><use transform="matrix(0.06172839506172839,0,0,0.06172839506172839,24.691358024691358,0)" xlink:href="#cn"/><use transform="matrix(0.06172839506172839,0,0,0.06172839506172839,35.80246913580247,0)" xlink:href="#co"/><use transform="matrix(0.06172839506172839,0,0,0.06172839506172839,40.67901234567901,0)" xlink:href="#cp"/><use transform="matrix(0.06172839506172839,0,0,0.06172839506172839,46.851851851851855,0)" xlink:href="#co"/><use transform="matrix(0.06172839506172839,0,0,0.06172839506172839,51.7283950617284,0)" xlink:href="#cq"/><use transform="matrix(0.06172839506172839,0,0,0.06172839506172839,62.839506172839506,0)" xlink:href="#cr"/><use transform="matrix(0.06172839506172839,0,0,0.06172839506172839,75.18518518518519,0)" xlink:href="#cg"/></g><path fill="#333" d="M67-158c22-48 132-52 116 29L158 0h-32l25-140c3-38-53-32-70-12C52-117 51-52 38 0H6l36-190h30" id="cs"/><path fill="#333" d="M103-194c29 0 47 14 56 36 2-11 5-23 8-32h30L160-5C157 61 82 97 21 62 9 55 4 45 1 30l28-7c7 42 83 31 92-3 4-16 9-38 13-55-13 20-29 36-62 36-40 0-60-25-60-64 0-71 23-131 91-131zm4 24c-53 0-58 54-61 104-2 27 10 44 36 44 49 0 65-50 67-102 1-29-15-46-42-46" id="ct"/><path fill="#333" d="M165-48c-4 18 1 34 23 27l-3 20c-29 8-62 0-52-35h-2C116-14 99 4 63 4 30 4 8-16 8-49c0-68 71-67 138-67 10-26 0-56-31-54-26 1-42 9-47 31l-32-5c8-67 160-71 144 15-5 28-9 54-15 81zM42-50c3 52 80 24 89-6 7-12 7-24 11-38-47 1-103-4-100 44" id="cu"/><g id="ab"><use transform="matrix(0.06172839506172839,0,0,0.06172839506172839,0,0)" xlink:href="#cs"/><use transform="matrix(0.06172839506172839,0,0,0.06172839506172839,12.345679012345679,0)" xlink:href="#cr"/><use transform="matrix(0.06172839506172839,0,0,0.06172839506172839,24.691358024691358,0)" xlink:href="#ct"/><use transform="matrix(0.06172839506172839,0,0,0.06172839506172839,37.03703703703704,0)" xlink:href="#cu"/><use transform="matrix(0.06172839506172839,0,0,0.06172839506172839,49.382716049382715,0)" xlink:href="#cp"/><use transform="matrix(0.06172839506172839,0,0,0.06172839506172839,55.55555555555556,0)" xlink:href="#co"/><use transform="matrix(0.06172839506172839,0,0,0.06172839506172839,60.4320987654321,0)" xlink:href="#cq"/><use transform="matrix(0.06172839506172839,0,0,0.06172839506172839,71.54320987654322,0)" xlink:href="#cr"/></g><path fill="#333" d="M67 3c-93-2-31-127-26-193h32L48-50c-3 39 53 32 70 12 30-34 30-101 43-152h32L157 0h-30c1-10 6-24 4-33-14 20-29 37-64 36" id="cv"/><path fill="#333" d="M6 0l50-261h32L37 0H6" id="cw"/><g id="ac"><use transform="matrix(0.06172839506172839,0,0,0.06172839506172839,0,0)" xlink:href="#cs"/><use transform="matrix(0.06172839506172839,0,0,0.06172839506172839,12.345679012345679,0)" xlink:href="#cr"/><use transform="matrix(0.06172839506172839,0,0,0.06172839506172839,24.691358024691358,0)" xlink:href="#cv"/><use transform="matrix(0.06172839506172839,0,0,0.06172839506172839,37.03703703703704,0)" xlink:href="#cp"/><use transform="matrix(0.06172839506172839,0,0,0.06172839506172839,43.20987654320988,0)" xlink:href="#cj"/><use transform="matrix(0.06172839506172839,0,0,0.06172839506172839,50.55555555555556,0)" xlink:href="#cu"/><use transform="matrix(0.06172839506172839,0,0,0.06172839506172839,62.901234567901234,0)" xlink:href="#cw"/></g><path fill="#333" d="M144-137c-1-29-70-35-71-2 16 41 103 10 103 80C176 9 79 16 32-9 18-17 9-31 4-48l44-6c3 32 80 36 82 1-15-42-103-11-103-82 0-77 157-79 161-8" id="cx"/><path fill="#333" d="M84-151c13-25 34-51 72-40l-8 41C67-170 71-64 56 0H6l36-190h47" id="cy"/><path fill="#333" d="M50-224l7-37h49l-7 37H50zM6 0l37-190h49L55 0H6" id="cz"/><path fill="#333" d="M156-122c2-23-7-37-28-37-47 0-58 44-58 89 0 24 12 40 36 40 43 0 47-49 50-92zM-8 75l50-265h48c0 10-3 24-3 30 22-50 127-45 121 29-6 73-21 135-92 135-29 0-46-14-55-35L41 75H-8" id="cA"/><path fill="#333" d="M72-63c-8 23 5 39 32 30L98-1C54 14 12-6 23-64l18-93H15l7-33h28l24-45h31l-8 45h35l-6 33H90" id="cB"/><path fill="#333" d="M124-194c51 0 84 22 84 74C207-44 167 4 94 4 43 4 11-23 11-74c0-74 41-120 113-120zM99-30c46 0 58-42 58-86 0-27-11-44-37-44-44 0-55 40-57 84-1 27 10 45 36 46" id="cC"/><g id="ad"><use transform="matrix(0.06172839506172839,0,0,0.06172839506172839,0,0)" xlink:href="#cc"/><use transform="matrix(0.06172839506172839,0,0,0.06172839506172839,15.987654320987653,0)" xlink:href="#bY"/><use transform="matrix(0.06172839506172839,0,0,0.06172839506172839,28.333333333333332,0)" xlink:href="#cx"/><use transform="matrix(0.06172839506172839,0,0,0.06172839506172839,40.67901234567901,0)" xlink:href="#ca"/><use transform="matrix(0.06172839506172839,0,0,0.06172839506172839,53.02469135802469,0)" xlink:href="#cy"/><use transform="matrix(0.06172839506172839,0,0,0.06172839506172839,61.666666666666664,0)" xlink:href="#cz"/><use transform="matrix(0.06172839506172839,0,0,0.06172839506172839,67.8395061728395,0)" xlink:href="#cA"/><use transform="matrix(0.06172839506172839,0,0,0.06172839506172839,81.35802469135803,0)" xlink:href="#cB"/><use transform="matrix(0.06172839506172839,0,0,0.06172839506172839,88.70370370370371,0)" xlink:href="#cz"/><use transform="matrix(0.06172839506172839,0,0,0.06172839506172839,94.87654320987654,0)" xlink:href="#cC"/><use transform="matrix(0.06172839506172839,0,0,0.06172839506172839,108.39506172839506,0)" xlink:href="#bZ"/></g><path fill="#333" d="M198-190L69 30C53 58 25 83-20 72c4-11-1-27 19-22 33-1 43-29 59-52L20-190h32L79-34l84-156h35" id="cD"/><g id="ae"><use transform="matrix(0.06172839506172839,0,0,0.06172839506172839,0,0)" xlink:href="#cr"/><use transform="matrix(0.06172839506172839,0,0,0.06172839506172839,12.345679012345679,0)" xlink:href="#cs"/><use transform="matrix(0.06172839506172839,0,0,0.06172839506172839,24.691358024691358,0)" xlink:href="#cp"/><use transform="matrix(0.06172839506172839,0,0,0.06172839506172839,30.864197530864196,0)" xlink:href="#co"/><use transform="matrix(0.06172839506172839,0,0,0.06172839506172839,35.74074074074074,0)" xlink:href="#cp"/><use transform="matrix(0.06172839506172839,0,0,0.06172839506172839,41.91358024691358,0)" xlink:href="#cD"/></g><path fill="#333" d="M44-68c0 29 11 47 38 47 30 0 42-19 51-41l28 9C148-21 126 4 82 4 31 4 10-29 12-85c3-77 74-140 146-93 12 8 15 23 18 40l-31 5c-1-22-13-36-36-36-52 0-65 49-65 101" id="cE"/><g id="af"><use transform="matrix(0.06172839506172839,0,0,0.06172839506172839,0,0)" xlink:href="#cE"/><use transform="matrix(0.06172839506172839,0,0,0.06172839506172839,11.11111111111111,0)" xlink:href="#ci"/><use transform="matrix(0.06172839506172839,0,0,0.06172839506172839,23.45679012345679,0)" xlink:href="#cs"/><use transform="matrix(0.06172839506172839,0,0,0.06172839506172839,35.80246913580247,0)" xlink:href="#cp"/><use transform="matrix(0.06172839506172839,0,0,0.06172839506172839,41.97530864197531,0)" xlink:href="#cu"/><use transform="matrix(0.06172839506172839,0,0,0.06172839506172839,54.32098765432099,0)" xlink:href="#co"/><use transform="matrix(0.06172839506172839,0,0,0.06172839506172839,59.19753086419753,0)" xlink:href="#cs"/><use transform="matrix(0.06172839506172839,0,0,0.06172839506172839,71.54320987654322,0)" xlink:href="#cn"/></g><path fill="#333" d="M76-167L44 0H12l33-167H18l4-23h27c3-47 25-81 82-69l-4 24c-35-8-44 15-46 45h37l-5 23H76" id="cF"/><path fill="#333" d="M248-111c6-24 9-61-24-58-72 9-57 108-77 169h-31l26-142c3-37-50-30-64-10C52-115 50-51 37 0H6l36-190h30c-1 10-6 24-4 32 13-43 101-52 105 5 13-22 29-41 61-41 90 0 28 129 23 194h-31" id="cG"/><g id="ag"><use transform="matrix(0.06172839506172839,0,0,0.06172839506172839,0,0)" xlink:href="#co"/><use transform="matrix(0.06172839506172839,0,0,0.06172839506172839,4.876543209876543,0)" xlink:href="#cs"/><use transform="matrix(0.06172839506172839,0,0,0.06172839506172839,17.22222222222222,0)" xlink:href="#cF"/><use transform="matrix(0.06172839506172839,0,0,0.06172839506172839,23.39506172839506,0)" xlink:href="#ci"/><use transform="matrix(0.06172839506172839,0,0,0.06172839506172839,35.74074074074074,0)" xlink:href="#cj"/><use transform="matrix(0.06172839506172839,0,0,0.06172839506172839,43.08641975308642,0)" xlink:href="#cG"/><use transform="matrix(0.06172839506172839,0,0,0.06172839506172839,61.5432098765432,0)" xlink:href="#cu"/><use transform="matrix(0.06172839506172839,0,0,0.06172839506172839,73.88888888888889,0)" xlink:href="#cp"/><use transform="matrix(0.06172839506172839,0,0,0.06172839506172839,80.06172839506172,0)" xlink:href="#co"/><use transform="matrix(0.06172839506172839,0,0,0.06172839506172839,84.93827160493827,0)" xlink:href="#ci"/><use transform="matrix(0.06172839506172839,0,0,0.06172839506172839,97.28395061728395,0)" xlink:href="#cs"/></g><path fill="#333" d="M68-162c25-46 127-43 121 31C183-60 169 1 98 4 69 5 53-11 43-31L36 0H5l52-261h31zm88 36c2-27-9-43-34-43-55 0-70 51-70 103 0 29 15 45 43 46 52 0 58-58 61-106" id="cH"/><g id="ah"><use transform="matrix(0.06172839506172839,0,0,0.06172839506172839,0,0)" xlink:href="#cu"/><use transform="matrix(0.06172839506172839,0,0,0.06172839506172839,12.345679012345679,0)" xlink:href="#cH"/><use transform="matrix(0.06172839506172839,0,0,0.06172839506172839,24.691358024691358,0)" xlink:href="#ci"/><use transform="matrix(0.06172839506172839,0,0,0.06172839506172839,37.03703703703704,0)" xlink:href="#cv"/><use transform="matrix(0.06172839506172839,0,0,0.06172839506172839,49.382716049382715,0)" xlink:href="#cp"/></g><path fill="#333" d="M67-158c15-20 31-36 64-36 94 0 33 127 27 194h-32l25-140c3-38-53-32-70-12C52-117 51-51 37 0H6l51-261h31" id="cI"/><g id="ai"><use transform="matrix(0.06172839506172839,0,0,0.06172839506172839,0,0)" xlink:href="#cH"/><use transform="matrix(0.06172839506172839,0,0,0.06172839506172839,12.345679012345679,0)" xlink:href="#ci"/><use transform="matrix(0.06172839506172839,0,0,0.06172839506172839,24.691358024691358,0)" xlink:href="#cp"/><use transform="matrix(0.06172839506172839,0,0,0.06172839506172839,30.864197530864196,0)" xlink:href="#cI"/></g><path fill="#333" d="M11 0l48-248h184l-5 28H87l-15 79h140l-5 27H67L50-27h158l-5 27H11" id="cJ"/><g id="aj"><use transform="matrix(0.06172839506172839,0,0,0.06172839506172839,0,0)" xlink:href="#cJ"/><use transform="matrix(0.06172839506172839,0,0,0.06172839506172839,14.814814814814813,0)" xlink:href="#cG"/><use transform="matrix(0.06172839506172839,0,0,0.06172839506172839,33.2716049382716,0)" xlink:href="#ci"/><use transform="matrix(0.06172839506172839,0,0,0.06172839506172839,45.61728395061728,0)" xlink:href="#cp"/><use transform="matrix(0.06172839506172839,0,0,0.06172839506172839,51.79012345679012,0)" xlink:href="#co"/><use transform="matrix(0.06172839506172839,0,0,0.06172839506172839,56.666666666666664,0)" xlink:href="#ci"/><use transform="matrix(0.06172839506172839,0,0,0.06172839506172839,69.01234567901234,0)" xlink:href="#cs"/></g><path fill="#333" d="M133-28C103 26-5 8 13-77c13-62 24-115 90-117 29-1 46 15 56 35l19-102h32L160 0h-30zM45-64c-2 27 10 43 35 43 54-1 69-50 69-103 0-29-15-46-42-46-53-1-58 58-62 106" id="cK"/><g id="ak"><use transform="matrix(0.06172839506172839,0,0,0.06172839506172839,0,0)" xlink:href="#cu"/><use transform="matrix(0.06172839506172839,0,0,0.06172839506172839,12.345679012345679,0)" xlink:href="#cs"/><use transform="matrix(0.06172839506172839,0,0,0.06172839506172839,24.691358024691358,0)" xlink:href="#cK"/></g><path fill="#333" d="M125-24c46 0 70-25 89-51l25 16C214-24 183 4 123 4 8 4-5-146 60-208c32-50 158-61 191-5 5 7 9 14 11 22l-32 10c-9-28-33-43-69-43-74 0-108 51-108 125 0 46 24 75 72 75" id="cL"/><g id="al"><use transform="matrix(0.06172839506172839,0,0,0.06172839506172839,0,0)" xlink:href="#cJ"/><use transform="matrix(0.06172839506172839,0,0,0.06172839506172839,14.814814814814813,0)" xlink:href="#cG"/><use transform="matrix(0.06172839506172839,0,0,0.06172839506172839,33.2716049382716,0)" xlink:href="#ci"/><use transform="matrix(0.06172839506172839,0,0,0.06172839506172839,45.61728395061728,0)" xlink:href="#cp"/><use transform="matrix(0.06172839506172839,0,0,0.06172839506172839,51.79012345679012,0)" xlink:href="#co"/><use transform="matrix(0.06172839506172839,0,0,0.06172839506172839,56.666666666666664,0)" xlink:href="#ci"/><use transform="matrix(0.06172839506172839,0,0,0.06172839506172839,69.01234567901234,0)" xlink:href="#cs"/><use transform="matrix(0.06172839506172839,0,0,0.06172839506172839,81.35802469135803,0)" xlink:href="#cL"/><use transform="matrix(0.06172839506172839,0,0,0.06172839506172839,97.34567901234568,0)" xlink:href="#cu"/><use transform="matrix(0.06172839506172839,0,0,0.06172839506172839,109.69135802469137,0)" xlink:href="#cp"/><use transform="matrix(0.06172839506172839,0,0,0.06172839506172839,115.8641975308642,0)" xlink:href="#cr"/><use transform="matrix(0.06172839506172839,0,0,0.06172839506172839,128.20987654320987,0)" xlink:href="#ct"/><use transform="matrix(0.06172839506172839,0,0,0.06172839506172839,140.55555555555554,0)" xlink:href="#ci"/><use transform="matrix(0.06172839506172839,0,0,0.06172839506172839,152.9012345679012,0)" xlink:href="#cj"/><use transform="matrix(0.06172839506172839,0,0,0.06172839506172839,160.24691358024688,0)" xlink:href="#cD"/></g><g id="am"><use transform="matrix(0.06172839506172839,0,0,0.06172839506172839,0,0)" xlink:href="#cp"/><use transform="matrix(0.06172839506172839,0,0,0.06172839506172839,6.172839506172839,0)" xlink:href="#ci"/></g><g id="an"><use transform="matrix(0.06172839506172839,0,0,0.06172839506172839,0,0)" xlink:href="#cn"/><use transform="matrix(0.06172839506172839,0,0,0.06172839506172839,11.11111111111111,0)" xlink:href="#co"/><use transform="matrix(0.06172839506172839,0,0,0.06172839506172839,15.987654320987653,0)" xlink:href="#cG"/><use transform="matrix(0.06172839506172839,0,0,0.06172839506172839,34.44444444444444,0)" xlink:href="#cm"/><use transform="matrix(0.06172839506172839,0,0,0.06172839506172839,46.79012345679012,0)" xlink:href="#cw"/><use transform="matrix(0.06172839506172839,0,0,0.06172839506172839,51.666666666666664,0)" xlink:href="#co"/><use transform="matrix(0.06172839506172839,0,0,0.06172839506172839,56.54320987654321,0)" xlink:href="#cF"/><use transform="matrix(0.06172839506172839,0,0,0.06172839506172839,62.71604938271605,0)" xlink:href="#cD"/></g><g id="ao"><use transform="matrix(0.06172839506172839,0,0,0.06172839506172839,0,0)" xlink:href="#cp"/><use transform="matrix(0.06172839506172839,0,0,0.06172839506172839,6.172839506172839,0)" xlink:href="#cI"/><use transform="matrix(0.06172839506172839,0,0,0.06172839506172839,18.51851851851852,0)" xlink:href="#cr"/></g><g id="ap"><use transform="matrix(0.06172839506172839,0,0,0.06172839506172839,0,0)" xlink:href="#cK"/><use transform="matrix(0.06172839506172839,0,0,0.06172839506172839,12.345679012345679,0)" xlink:href="#cu"/><use transform="matrix(0.06172839506172839,0,0,0.06172839506172839,24.691358024691358,0)" xlink:href="#cp"/><use transform="matrix(0.06172839506172839,0,0,0.06172839506172839,30.864197530864196,0)" xlink:href="#cu"/><use transform="matrix(0.06172839506172839,0,0,0.06172839506172839,43.20987654320987,0)" xlink:href="#cH"/><use transform="matrix(0.06172839506172839,0,0,0.06172839506172839,55.55555555555555,0)" xlink:href="#cn"/><use transform="matrix(0.06172839506172839,0,0,0.06172839506172839,66.66666666666666,0)" xlink:href="#cr"/></g><g id="aq"><use transform="matrix(0.06172839506172839,0,0,0.06172839506172839,0,0)" xlink:href="#cn"/><use transform="matrix(0.06172839506172839,0,0,0.06172839506172839,11.11111111111111,0)" xlink:href="#cE"/><use transform="matrix(0.06172839506172839,0,0,0.06172839506172839,22.22222222222222,0)" xlink:href="#cI"/><use transform="matrix(0.06172839506172839,0,0,0.06172839506172839,34.5679012345679,0)" xlink:href="#cr"/><use transform="matrix(0.06172839506172839,0,0,0.06172839506172839,46.913580246913575,0)" xlink:href="#cG"/><use transform="matrix(0.06172839506172839,0,0,0.06172839506172839,65.37037037037037,0)" xlink:href="#cu"/></g><path fill="#333" d="M70-104c-4 71 81 81 132 50l8-40h-60l7-37h108L246-31C216-10 181 3 130 3 60 2 18-32 18-102c-1-106 79-169 188-144 33 8 53 31 63 63l-50 14c-6-26-25-42-56-42-62 0-89 43-93 107" id="cM"/><path fill="#333" d="M132-28C118-9 101 4 69 4 30 4 10-23 10-62c0-70 24-129 92-132 31-1 47 14 56 35l19-102h49L179 0h-49zM62-69c0 22 7 39 29 39 45-2 54-45 57-90 2-27-10-40-33-40-44 0-53 48-53 91" id="cN"/><g id="ar"><use transform="matrix(0.06172839506172839,0,0,0.06172839506172839,0,0)" xlink:href="#cM"/><use transform="matrix(0.06172839506172839,0,0,0.06172839506172839,17.28395061728395,0)" xlink:href="#bY"/><use transform="matrix(0.06172839506172839,0,0,0.06172839506172839,29.629629629629626,0)" xlink:href="#bZ"/><use transform="matrix(0.06172839506172839,0,0,0.06172839506172839,43.148148148148145,0)" xlink:href="#cN"/><use transform="matrix(0.06172839506172839,0,0,0.06172839506172839,56.666666666666664,0)" xlink:href="#bY"/><use transform="matrix(0.06172839506172839,0,0,0.06172839506172839,69.01234567901234,0)" xlink:href="#cy"/><use transform="matrix(0.06172839506172839,0,0,0.06172839506172839,77.65432098765432,0)" xlink:href="#cd"/></g><path fill="#333" d="M87-220l-18 92h140l-5 28H64L45 0H11l48-248h178l-5 28H87" id="cO"/><path fill="#333" d="M-20 4l123-265h28L8 4h-28" id="cP"/><path fill="#333" d="M222 0l43-216c-8 16-17 34-26 49L143 0h-22L81-216 41 0H11l48-248h42l38 208 116-208h45L252 0h-30" id="cQ"/><g id="as"><use transform="matrix(0.06172839506172839,0,0,0.06172839506172839,0,0)" xlink:href="#cO"/><use transform="matrix(0.06172839506172839,0,0,0.06172839506172839,13.518518518518517,0)" xlink:href="#cP"/><use transform="matrix(0.06172839506172839,0,0,0.06172839506172839,19.691358024691358,0)" xlink:href="#cQ"/></g><g id="at"><use transform="matrix(0.06172839506172839,0,0,0.06172839506172839,0,0)" xlink:href="#ci"/><use transform="matrix(0.06172839506172839,0,0,0.06172839506172839,12.345679012345679,0)" xlink:href="#cj"/></g><path fill="#333" d="M173 0L80-213 41 0H11l48-248h37l94 214 40-214h30L212 0h-39" id="cR"/><use transform="matrix(0.06172839506172839,0,0,0.06172839506172839,0,0)" xlink:href="#cR" id="au"/><path fill="#333" d="M14 0l48-248h34L48 0H14" id="cS"/><path fill="#333" d="M248-139C247-14 144 9 11 0l48-248c105-6 190 8 189 109zm-34 0c1-70-52-87-126-82L50-27c98 7 163-21 164-112" id="cT"/><path fill="#333" d="M180 0L97-118 63-96 45 0H11l48-248h34L69-126c44-43 94-81 141-122h43L121-137 219 0h-39" id="cU"/><g id="av"><use transform="matrix(0.06172839506172839,0,0,0.06172839506172839,0,0)" xlink:href="#cS"/><use transform="matrix(0.06172839506172839,0,0,0.06172839506172839,6.172839506172839,0)" xlink:href="#cT"/><use transform="matrix(0.06172839506172839,0,0,0.06172839506172839,22.160493827160494,0)" xlink:href="#cU"/></g><path fill="#333" d="M98-137C97-35 54 29-4 75h-31C23 23 67-41 67-140c0-50-15-89-37-121h31c24 32 36 73 37 124" id="cV"/><g id="aw"><use transform="matrix(0.06172839506172839,0,0,0.06172839506172839,0,0)" xlink:href="#cd"/><use transform="matrix(0.06172839506172839,0,0,0.06172839506172839,6.172839506172839,0)" xlink:href="#cV"/></g></defs></g></svg>